<?xml version="1.0" encoding="UTF-8" standalone="no"?>
<svg id="green" xmlns:rdf="http://www.w3.org/1999/02/22-rdf-syntax-ns#" xmlns="http://www.w3.org/2000/svg" height="700" width="700" version="1.1" xmlns:cc="http://creativecommons.org/ns#" xmlns:xlink="http://www.w3.org/1999/xlink" viewBox="0 0 700.00001 700.00001" xmlns:dc="http://purl.org/dc/elements/1.1/">
 <defs>
  <linearGradient id="lg1" y2="632.94" gradientUnits="userSpaceOnUse" x2="461.86" gradientTransform="translate(-38.571 250.29)" y1="632.25" x1="318.89">
   <stop stop-color="#a5c5d8" offset="0"/>
   <stop stop-color="#a5c5d8" stop-opacity="0" offset=".27673"/>
   <stop stop-color="#a5c5d8" stop-opacity="0" offset=".68977"/>
   <stop stop-color="#a5c5d8" offset="1"/>
  </linearGradient>
  <linearGradient id="lg2" y2="639.68" gradientUnits="userSpaceOnUse" x2="295.33" gradientTransform="translate(-38.571 250.29)" y1="567.54" x1="280.43">
   <stop stop-color="#60ca68" offset="0"/>
   <stop stop-color="#a5c5d8" offset=".19676"/>
   <stop stop-color="#a5c5d8" offset=".84622"/>
   <stop stop-color="#60ca68" offset="1"/>
  </linearGradient>
  <linearGradient id="lg3" y2="636.11" gradientUnits="userSpaceOnUse" x2="292.47" gradientTransform="translate(146.76 258.68)" y1="568.97" x1="305.07">
   <stop stop-color="#60ca68" offset="0"/>
   <stop stop-color="#a5c5d8" stop-opacity=".99216" offset=".19676"/>
   <stop stop-color="#a5c5d8" offset=".78793"/>
   <stop stop-color="#60ca68" offset="1"/>
  </linearGradient>
  <linearGradient id="lg4" y2="528.2" gradientUnits="userSpaceOnUse" x2="247.44" gradientTransform="translate(-38.571 250.29)" y1="486.77" x1="249.04">
   <stop stop-color="#1b7199" offset="0"/>
   <stop stop-color="#a1ddf7" offset="1"/>
  </linearGradient>
  <linearGradient id="lg5" y2="528.2" gradientUnits="userSpaceOnUse" x2="247.44" gradientTransform="translate(202.57 259.21)" y1="486.77" x1="249.04">
   <stop stop-color="#1b7199" offset="0"/>
   <stop stop-color="#a1ddf7" offset="1"/>
  </linearGradient>
 </defs>
 <g>
  <g transform="translate(0 -352.36)">
   <path d="m170.43 505.57c-7.5028 2.0148-11.463 9.8288-16.617 15.068-23.268 28.575-35.355 65.425-34.618 102.28-0.1376 34.282 8.967 68.606 25.646 98.364 3.89 7.6343 10.218 13.938 14.551 20.949 0.34879 30.082 0.93223 60.796 11.038 89.419 15.97 51.041 52.85 95.185 101.03 118.61 48.301 24.393 108.56 24.527 156.28-1.4375 40.997-21.911 71.397-59.641 91.158-101.28 2.0121-4.9564 5.894-9.4846 6.3104-14.906-5.5305-4.4409-13.059-6.7684-16.125-13.812-3.9763-7.0488-3.9817-15.225-4.6875-23.062 9.578-21.595 22.16-43.244 35.285-63.843 17.206-30.327 17.519-71.467-2.6274-100.58-12.217-18.751-32.429-30.397-53.513-36.485-28.1-9.6623-61.089-13.248-87.956 1.375-16.156 9.064-28.584 23.539-38.656 38.75-3.0417 4.5735-7.0895-2.2011-9.5-4-21.165-21.178-38.155-47.591-44.938-76.938-31.101 2.9783-60.387 17.728-81.812 40.219-2.7656 1.6866-5.1024 6.6393-8.5312 6.5625-3.8474-6.1696-2.2716-14.287-4.2188-21.219-4.5163-22.625-10.046-46.242-24.281-64.875-3.4545-3.8112-7.4798-9.3146-13.219-9.1562zm76.75 309.38c7.2033-0.12992 15.922 1.5317 21.594 4-4.5161-1.4782-6.3122 4.1246-4.5938 7.4688 4.673 14.046 20.056 19.165 32.472 24.214 32.446 12.275 68.845 11.4 102.37 3.7363 11.762-3.3009 25.695-7.2353 31.872-18.7 2.1118-5.0385 1.2028-12.784-3.9062-15.594-1.5425-0.73001-7.3157-0.11531-5.5835-0.6727 14.512-3.4838 31.442-1.3087 42.146 9.6727-7.1015-7.009-4.0302 5.1484-5.0277 9.6173 0.14496 25.548-5.7579 52.517-24.19 71.267-21.232 21.486-53.097 28.218-82.501 28.421-22.9 1.1854-45.812-4.206-66.094-14.665-27.573-15.237-49.262-44.303-48.748-76.701-0.23366-9.9045-0.10786-19.813-0.15937-29.72-3.9478 0.63049-10.634 1.8777-13 2.1562 7.4554-2.8328 15.274-4.3942 23.344-4.5z" fill="#a8e2ac"/>
   <path fill="#39ac42" d="m178.11 437.27c-36.601 0.29035-65.434 29.352-80.187 60.603-24.458 48.974-30.635 108.34-12.001 160.26 5.2447 15.061 14.845 27.955 25.508 39.55-28.863 28.357-43.682 69.631-41.984 109.85 1.1871 45.616 31.04 86.52 69.573 109.05 9.6941 6.3921 20.569 10.734 30.271 17.08-12.336 6.0709-29.59 10.345-34.378 24.911-2.0791 16.175 14.282 26.142 25.275 34.756 30.712 22.768 71.645 32.337 108.93 23.004 18.729-6.7796 28.761-26.783 28.485-45.902 1.9531-11.006-12.641-9.0556-18.942-13.824-43.905-19.113-80.208-54.257-100.33-97.338-17.371-35.792-22.413-75.957-22.109-115.48-6.7286-11.464-15.711-22.009-20.709-34.665-13.516-28.962-20.071-60.132-18.827-92.391-0.63072-34.748 13.344-69.458 34.327-97.113 6.439-6.3664 12.897-18.633 23.584-16.261 13.376 6.0634 18.56 21.837 24.467 34.182 7.2281 15.93 8.8792 33.553 14.166 49.964 7.3874 6.818 13.932-4.7959 19.83-8.3678 11.026-9.1377 24.426-14.782 36.892-21.227 4.1533-6.3914-1.0118-15.526-0.1013-22.646-1.6634-30.391 0.37419-60.925 5.4263-90.643-2.5927-7.7544-14.053-4.2251-20.409-3.0066-7.3762 1.9996-12.748 8.4846-18.739 12.079-18.157-9.1665-37.098-17.918-58.022-16.42z"/>
   <path stroke-linejoin="round" d="m297.3 964.25s13.724 82.843-104.55 47.982c-28.37-13.11-103.24-53.77-22.72-78.76-146.27-63.39-104.9-195.85-58.09-235.87-84.507-71.85-17.823-330.86 124.25-243.45 8.2276-8.5574 18.731-18.547 40.233-13.009m-4.2857 115.71c-26.19-254.12 151.48-205.89 183.21-167.56 31.735 38.331-5.5051 95.164-5.5051 95.164" stroke="#18491c" stroke-width="10" fill="none"/>
   <path fill="#39ac42" d="m481.61 481.82c-8.9962 0.3412-18.326 1.4-26.62 4.9554-4.6313 4.7509 0.0857 11.308 1.2584 16.578 2.7114 7.7384 3.7154 15.952 6.1314 23.744 2.313 4.588 7.9309 2.647 11.035 0.0944 11.449-6.5705 23.603-12.339 36.387-15.704 5.5988 0.0892 7.224-6.958 4.2885-10.864-4.754-11.176-16.194-19.134-28.471-18.751-1.3357-0.0545-2.6728-0.0703-4.0095-0.053z"/>
   <path d="m449.29 487.65c49.696-15.958 62.139 0.47996 68.571 22.143" stroke="#18491c" stroke-width="10" fill="none"/>
   <path stroke-linejoin="round" d="m70.02 816.26c27.352 38.273 60.749 45.529 81.317 34.345-26.858 44.138 22.695 69.507 57.579 58.084-30.649 53.626 8.5501 83.44 39.901 111.12" stroke="#18491c" stroke-linecap="round" stroke-width="5" fill="none"/>
   <path d="m82.5 541.58c-2.4305 20.062 21.06 39.38 37.143 51.071" stroke="#18491c" stroke-width="5" fill="none"/>
   <path fill="#39ac42" d="m367.96 362.16c-21.59-0.11286-42.661 9.6546-57.875 24.594-23.494 23.87-32.238 58.188-35.868 90.621-1.39 22.681-1.4579 45.53 0.0247 68.191-0.0976 3.8282 2.428 8.9792 7.0312 6.9062 5.8514-2.4061 13.913-0.49421 18.625-5.3125 2.9328-7.8196 0.33908-16.701 2-24.875 2.242-16.097 9.3231-31.678 19.094-44.625 19.162-23.216 50.389-39.266 80.875-32.719 15.925 2.8331 29.586 12.781 39.825 25.024 3.352 1.8738 8.3392 13.328 10.02 5.2819 10.557-21.61 17.757-47.877 8.6236-71.212-8.668-21.142-31.338-31.359-51.897-37.437-12.971-4.496-26.856-4.6181-40.478-4.4382z"/>
   <path stroke-linejoin="round" d="m304.29 551.22c-42.717 3.3646-71.015 23.862-91.429 47.143-2.6463-52.221-30.837-111.54-50-92.143-84.951 85.981-34.185 209.58-5.7143 236.43-15.476 231.67 275 331.67 372.86 87.143" stroke="#60ca68" stroke-width="10" fill="none"/>
   <path fill="#18491c" d="m451.9 837.22c-6.4136 14.608-8.8303 30.985-7.9062 46.844 3.0631 3.7402 5.2973-2.5013 5.7812-4.9375 4.891-15.261 7.2701-31.645 5.2188-47.656-1.0312 1.9167-2.0625 3.8333-3.0938 5.75z"/>
   <path d="m454.98 826.4c-12.071 23.852-13.695 37.21-12.857 72.143" stroke="url(#lg3)" stroke-width="7" fill="none"/>
   <path fill="#39ac42" d="m387.47 446.95c-37.984 0.47497-72.319 30.506-80.686 67.095-7.6989 30.614 3.3053 62.73 20.729 87.972 6.87 9.7704 14.401 19.389 23.353 27.235 5.6518 3.072 8.392-4.7858 11.365-8.0058 13.28-18.046 32.545-32.363 54.918-36.36 29.639-5.9483 59.994 2.4868 87.187 14.091 31.826 14.49 53.016 49.229 51.223 84.175 0.47694 25.971-11.573 50.37-27.498 70.228-11.9 15.777-22.703 35.164-19.129 55.648 1.6761 7.7243 7.1181 15.507 14.877 17.934 11.948 3.8867 24.826-0.86846 35.271-6.9085 9.6709-5.8332 19.182-12.646 26.243-21.518 2.5241-4.891-3.7736-9.441-8.058-6.6295-13.146 3.9577-27.744 5.9881-41.037 1.6853 10.795-8.6889 22.929-16.338 33.615-25.485 33.964-27.77 64.514-62.826 76.55-105.88 6.3713-23.411 7.434-48.451 2.4466-72.221-6.1616-25.71-24.045-47.211-45.285-62.234-18.659-12.087-40.649-20.012-63.105-19.138-15.147-0.39613-30.252 2.3576-44.266 8.1279-12.034 4.4422-22.942 11.543-33.752 18.108-3.0846-18.803-6.837-38.096-17.151-54.481-11.259-19.026-31.764-33.098-54.286-33.386-1.1741-0.0479-2.349-0.0641-3.524-0.0572z"/>
   <path fill="#18491c" d="m239.33 827.29c-2.3555 21.103 1.8442 42.747 12.167 61.333 3.1996 9.2001 2.094-4.8063 2.8644-8.362 0.96427-20.231-4.1918-40.099-13.272-58.044-1.2424-4.4585-1.1895 3.9538-1.7591 5.0728z"/>
   <path d="m241.07 818.01c8.286 18.852 18.448 35.603 13.929 77.321" stroke="url(#lg2)" stroke-width="7" fill="none"/>
   <path d="m238.57 817.65c-12.672 84.784 52.49 119.94 109.13 119.89 56.8-0.0488 115.48-20.298 109.44-111.32" stroke="#60ca68" stroke-width="7" fill="none"/>
   <path d="m262.86 818.36c-6.8979 26.051 45.937 39.275 70.508 42.409 24.571 3.1346 118.73-2.391 96.635-40.981" stroke="#60ca68" stroke-width="7" fill="none"/>
   <path fill="#60ca68" d="m246.12 812.41c-10.959 0.79358-22.47 3.4795-31.844 9.0938-0.0189 3.9604 5.8251 0.21484 7.875 0.5 18.407-3.8922 38.115-4.5778 55.938 1.7812 2.7606-2.258-2.4154-4.4576-4.0938-5.25-8.6458-4.3162-18.234-6.4071-27.875-6.125zm32.375 11.156c-0.0429 0.0577 0.10364 0.0325 0 0zm-63.844-0.65625c-0.10364 0.0325 0.0429 0.0577 0 0z"/>
   <path d="m416.5 818.03c-7.4289 1.8576-6.8874 3.4513-0.25253 3.5355 17.269 0.21913 31.793-0.84754 49.624 11.49 3.348 2.3166 6.7724 2.8266 2.1466-2.6516-14.565-17.249-33.902-16.779-51.518-12.374z" fill="#60ca68"/>
   <path stroke-linejoin="round" d="m253.57 850.51c0.7697 11.358 44.612 41.989 98.036 41.796 55.227-0.19977 90.618-10.675 91.606-28.953" stroke="url(#lg1)" stroke-linecap="round" stroke-width="7" fill="none"/>
   <path stroke-linejoin="round" d="m276 451.39c10.157-13.712 39.008-25.178 61.201-21.657-5.0375-26.215 8.2168-65.844 33.371-70.563" stroke="#18491c" stroke-linecap="round" stroke-width="5" fill="none"/>
   <path stroke-linejoin="round" d="m384.64 446.93c8.6948-10.641 35.439-8.8791 38.929-1.4286 2.7144-14.828 17.438-27.283 43.571-23.571" stroke="#18491c" stroke-linecap="round" stroke-width="5" fill="none"/>
   <path d="m298.44 817.52c3.4915 2.2843 4.0719-2.425 2.2728-3.6618-13.405-12.392-26.311-10.001-31.567-9.4702-2.6898 0.27178-4.8748 3.0345-0.89254 2.7422 7.3939-0.54275 20.916 4.3247 30.187 10.39z" fill="#60ca68"/>
   <path d="m396.23 810.66c-2.4592 1.6377-2.6223 4.6862 1.2907 3.0458 9.5515-4.0041 19.293-5.933 27.391-5.0355 2.817 0.31219 4.4178-3.1692-0.14531-3.8594-10.386-1.571-19.661-0.0619-28.537 5.8491z" fill="#60ca68"/>
   <path d="m314.98 821.69c-1.8582-0.90817-6.3047 9.6654-3.4093 13.385 4.809 6.1771 14.781 5.1371 14.142 2.7779-0.9131-3.37-5.2714-4.8918-6.7051-8.2016-1.7038-3.9334 0.18648-5.9012-4.0278-7.9609z" fill="#60ca68"/>
   <path d="m361.7 838.27c0.70411 1.9829 11.063 2.8271 13.393-2.5 2.4057-5.5005-0.29908-12.885-1.9643-13.304-2.4854-0.62519-2.6875 4.9646-5 8.5714-2.4316 3.7927-7.0867 5.3787-6.4286 7.2321z" fill="#60ca68"/>
   <path d="m320.54 803.89c22.086-0.25893 36.477-0.62275 50.381 1.5152 5.5062 0.84663-4.6379-8.8188-22.223-9.5964-26.205-0.33095-30.859 8.1129-28.158 8.0812z" fill="#60ca68"/>
   <path d="m156.14 562.71c-2.9283-0.40535-13.488 32.143-11.617 57.831 2.4055 33.028 12.903 51.266 16.92 49.75 2.8981-1.0933-4.9855-18.099-9.0914-46.972-3.2761-23.038 6.0616-60.294 3.7881-60.609z" fill="#60ca68"/>
   <path d="m228.31 646.36c-41.699 0.51648-80.39 58.279-52.219 141.38l1.0625 0.125c34.194-14.74 84.825-15.77 122.47 12.531l2.2188 0.21875c2.384-110.6-36.738-154.71-73.531-154.25z" fill="#fff"/>
   <path fill="url(#lg4)" d="m230.33 646.38c-48.43 41.508-35.587 92.775-26.156 133.47 30.706-5.5288 66.817-0.98187 95.438 20.531l2.2188 0.21875c2.3402-108.57-35.312-153.05-71.5-154.22z"/>
   <path opacity=".7" d="m264.08 661.41c-59.77 21.639-45.325 77.944-36.969 116.28 24.722-0.21099 50.77 6.3537 72.5 22.688l2.2188 0.21875c1.5933-73.915-15.351-118.13-37.75-139.19z"/>
   <path d="m250.95 731.05c1.7972-1.0448 13.874 13.005 16.065 13.126 2.1919 0.12138 9.4297-11.164 11.92-9.566 2.4903 1.5982-2.6346 14.026-1.3096 16 1.3249 1.9746 18.051 5.2432 18.159 7.8645 0.1079 2.6213-14.84 2.2036-15.605 4.0384-0.76565 1.8347 7.2619 15.925 5.7887 16.948-1.4732 1.0231-12.143-12.191-14.264-12.444-2.121-0.25354-10.034 10.71-12.402 9.566-2.3685-1.1436 2.5119-14.38 0.76289-16.241s-17.338-5.2295-17.613-7.6235c-0.2743-2.394 15.392-1.5176 16.136-3.5562 0.74406-2.0386-9.436-17.068-7.6388-18.112z" fill="#fff"/>
   <path d="m231.25 724.43c0.39032 3.802 4.4131 5.7576 7.1429 5.5357 5.8811-0.47811 11.327-8.2344 10.536-12.143-0.7874-3.8872-4.2782-5.5865-7.8572-5.1786-4.6274 0.52746-10.297 7.1527-9.8214 11.786z" fill="#fff"/>
   <path d="m232.91 660.44c-15.264-0.4321-26.593 21.616-27.274 36.871-0.81416 18.235 11.472 23.925 22.981 13.89 9.1364-7.9669 14.188-19.954 13.89-32.072-0.25004-10.148-1.7083-18.465-9.5964-18.688z" fill="#fff"/>
   <path d="m235.22 769.97c-0.8162 0.76466-6.199-5.769-7.1967-5.8397-0.99775-0.0707-3.719 5.5309-4.8117 5.0566s0.58043-6.9781-0.16943-7.7884c-0.74986-0.81023-8.6514-1.3234-8.9767-2.7474-0.32528-1.424 7.11-0.41965 7.1708-1.413 0.0609-0.9933-5.268-7.6382-4.3086-8.3397 0.9594-0.70152 6.4232 6.2155 7.6735 6.2861 1.2503 0.0707 3.3177-6.1667 4.3349-5.503s-0.0348 7.0151 0.68123 7.699c0.71603 0.68397 8.1565 1.4758 8.4649 2.8367 0.30837 1.3609-6.7809 0.80293-7.1405 1.8594-0.35961 1.0564 5.0944 7.1286 4.2782 7.8933z" fill="#fff"/>
   <g>
    <path d="m530.1 749.44c-0.48752-73.65-37.483-99.18-72.653-87.44s-68.514 60.75-61.697 136.18c32.324-14.793 59.168-21.804 110.03-4.0128 2.7989-14.909 9.1889-29.818 24.318-44.727z" fill="#fff"/>
    <path d="m473.93 659.25c-3.8067-0.0188-7.675 0.44448-11.531 1.3438-0.0732 0.0238-0.14549 0.0384-0.21875 0.0625-35.215 25.437-42.02 75.266-34.375 124.53 1.9474-0.35064 4.0134-0.62362 6.125-0.84375l1.25 0.3125c21.458-3.7151 43.924-0.50236 70.969 10.219 0.84614 0.13909 0.81828 0.18087 1.4464 0.25 0.42439-14.336 6.2666-25.161 22.147-44.562l0.375-1.125c-0.41134-62.142-26.821-90.042-56.188-90.188z" fill="url(#lg5)"/>
    <path opacity=".7" d="m487.68 679.82c-0.72316 0.012-1.4349 0.0734-2.1562 0.15625-22.903 2.6294-48.273 49.122-37.031 103.31 17.518-0.68303 36.14 3.0642 57.656 11.594 0.84614 0.13909 0.80935 0.18087 1.4375 0.25 0.40847-13.798 5.8711-24.367 20.438-42.438 0.86743-45.427-19.899-73.215-40.344-72.875z"/>
    <path d="m465.99 679.81c-15.264-0.34341-26.593 17.179-27.274 29.302-0.81416 14.492 11.472 19.014 22.981 11.039 9.1364-6.3316 14.188-15.858 13.89-25.489-0.25004-8.0651-1.7083-14.674-9.5964-14.852z" fill="#fff"/>
    <path d="m466.49 731.71c0.34329 3.1776 3.8814 4.8121 6.2822 4.6266 5.1725-0.39959 9.9625-6.8821 9.2662-10.149-0.69252-3.2488-3.7627-4.6691-6.9104-4.3281-4.0698 0.44083-9.0563 5.9781-8.638 9.8502z" fill="#fff"/>
    <path d="m487.84 727.7c1.8783-0.61864 10.334 14.891 12.349 15.44 2.0149 0.5482 10.979-8.55 12.979-6.5642 2.0004 1.9859-5.2237 12.569-4.3817 14.675s15.754 8.4757 15.336 10.944c-0.41788 2.4682-14.239-0.88736-15.314 0.67333s3.6062 16.306 2.0336 16.969c-1.5727 0.66269-8.8851-13.788-10.808-14.446-1.9228-0.65748-11.451 8.0059-13.428 6.4685s5.1798-12.925 3.9208-15.009c-1.2589-2.0841-15.094-8.3213-14.876-10.61 0.21824-2.289 14.618 1.6373 15.713-0.11795 1.0952-1.7553-5.4026-17.803-3.5243-18.422z" fill="#fff"/>
    <path d="m466.59 771.37c-0.93259 0.40941-4.0932-5.8226-4.9736-6.0979-0.88036-0.27528-4.7779 3.4446-5.6395 2.8369-0.86166-0.60772 2.3249-5.2556 1.8588-6.0467-0.46611-0.79103-7.4501-2.9351-7.3753-4.1058s6.512 1.2492 6.8233 0.49632c0.31095-0.75306-2.772-7.0588-1.7267-7.3878 1.0452-0.32902 4.1799 6.2167 5.2877 6.5478 1.1078 0.33117 4.5807-4.024 5.3254-3.2869 0.74471 0.73713-1.843 5.4049-1.3748 6.091 0.46826 0.68614 6.965 2.9432 6.8913 4.0614s-6.3146-0.8807-6.9113-0.14517c-0.59671 0.73555 2.7473 6.6272 1.8147 7.0366z" fill="#fff"/>
    <g>
     <path stroke-linejoin="round" d="m530.1 749.44c-0.97-147.3-147.98-102.12-134.35 48.74" stroke="#000" stroke-linecap="round" stroke-width="7" fill="none"/>
     <path d="m524.04 695.52c28.279-14.363 32.528-23.719 27.271-34.995-3.0743 14.924-29.832 29.184-32.89 23.902z"/>
     <path d="m530.13 717.37c12.129 1.3454 20.383-2.3122 22.197-12.83-12.418 5.8328-23.23 5.8564-24.773 0.32153z"/>
     <path d="m510.19 678.57c19.326-15.322 19.16-26.495 14.661-35.245-3.5794 13.156-15.78 28.467-20.732 23.817z"/>
    </g>
   </g>
   <path d="m230.71 292.64c-54.65 1.15-79.58 68.81-56.46 141.69l1.36-0.41c-27.24-82.32 11.24-139.42 52.69-139.93 36.66-0.46 75.63 43.33 73.57 153.01l0.92 0.71c4.8-90.36-29.26-155.97-72.08-155.07z" fill-rule="evenodd" transform="translate(0 352.36)" fill="#a8e2ac">
    <animate begin="5s" repeatCount="indefinite" attributeName="d" values="M 230.71289 292.63867 C 176.05573 293.78965 151.12703 361.44757 174.25195 434.33008 L 175.61328 433.92188 C 148.37475 351.6011 186.84732 294.50176 228.30469 293.98828 C 264.95889 293.5343 303.93156 337.31914 301.86914 446.99609 L 302.79297 447.71484 C 307.59326 357.34924 273.53054 291.73701 230.71289 292.63867 z;                  M 230.71289 292.63867 C 176.05573 293.78965 151.12703 361.44757 174.25195 434.33008 L 175.61328 433.92188 C 148.37475 351.6011 186.84732 294.50176 228.30469 293.98828 C 264.95889 293.5343 303.93156 337.31914 301.86914 446.99609 L 302.79297 447.71484 C 307.59326 357.34924 273.53054 291.73701 230.71289 292.63867 z;            m 230.71289,292.63867 c -54.65716,1.15098 -79.58586,68.8089 -56.46094,141.69141 l 1.36133,-0.4082 c 15.75168,-18.07839 48.18764,-15.87723 59.83735,-16.11144 8.09546,-0.16275 52.82356,3.6039 66.41851,29.18565 l 0.92383,0.71875 c 4.80029,-90.3656 -29.26243,-155.97783 -72.08008,-155.07617 z;            m 230.71289,292.63867 c -54.65716,1.15098 -79.58586,68.8089 -56.46094,141.69141 l 1.36133,-0.4082 c 15.75168,-18.07839 48.18764,-15.87723 59.83735,-16.11144 8.09546,-0.16275 52.82356,3.6039 66.41851,29.18565 l 0.92383,0.71875 c 4.80029,-90.3656 -29.26243,-155.97783 -72.08008,-155.07617 z;      M 230.71289 292.63867 C 176.05573 293.78965 151.12703 361.44757 174.25195 434.33008 L 175.61328 433.92188 C 148.37475 351.6011 186.84732 294.50176 228.30469 293.98828 C 264.95889 293.5343 303.93156 337.31914 301.86914 446.99609 L 302.79297 447.71484 C 307.59326 357.34924 273.53054 291.73701 230.71289 292.63867 z" attributeType="XML" dur="10s" keyTimes="0;0.97;0.98;0.99;1"/>
   </path>
   <path stroke-linejoin="round" d="m301.85 800.6c5.09-235.94-178.79-169.29-125.76-12.88" stroke="#000" stroke-linecap="round" stroke-width="7" fill="none">
    <animate id="anim-eye-border-close" begin="5s" repeatCount="indefinite" attributeName="d" values="M 301.84998,800.60208 C 306.93585,564.6621  123.05783,631.30616 176.08599,787.72264;            M 301.84998,800.60208 C 306.93585,564.6621  123.05783,631.30616 176.08599,787.72264;            M 301.84998,800.60208 C 287.04079,763.78379 184.92355,761.73482 176.08599,787.72264;      M 301.84998,800.60208 C 287.04079,763.78379 184.92355,761.73482 176.08599,787.72264;            M 301.84998,800.60208 C 306.93585,564.6621  123.05783,631.30616 176.08599,787.72264" attributeType="XML" dur="10s" keyTimes="0;0.97;0.98;0.99;1"/>
   </path>
   <path d="m187.86 669.08c-20.337-14.059-20.928-30.535-16.429-39.286 3.5794 13.156 14.77 28.973 22.5 27.857z">
    <animate begin="5s" repeatCount="indefinite" attributeName="d" values="m 187.85714,669.07646 c -20.33659,-14.05944 -20.92803,-30.53517 -16.42857,-39.28571 3.57942,13.15642 14.77011,28.97256 22.5    ,27.85715 z;            m 187.85714,669.07646 c -20.33659,-14.05944 -20.92803,-30.53517 -16.42857,-39.28571 3.57942,13.15642 14.77011,28.97256 22.5    ,27.85715 z;            m 224.11756,767.69497 c   0      ,  0        -1.64367,-25.016    11.42679,-27.6689 -8.36654,17.1065  -5.26111,26.10152 -1.32045,26.87272 z;            m 224.11756,767.69497 c   0      ,  0        -1.64367,-25.016    11.42679,-27.6689 -8.36654,17.1065  -5.26111,26.10152 -1.32045,26.87272 z;            m 187.85714,669.07646 c -20.33659,-14.05944 -20.92803,-30.53517 -16.42857,-39.28571 3.57942,13.15642 14.77011,28.97256 22.5    ,27.85715 z" attributeType="XML" dur="10s" keyTimes="0;0.97;0.98;0.99;1"/>
   </path>
   <path d="m173.1 687.29c-21.408-5.488-36.285-27.321-30.714-38.214 6.0794 13.156 29.056 30.044 35.714 26.429z">
    <animate begin="5s" repeatCount="indefinite" attributeName="d" values="m 173.10455,687.29076 c -21.40801, -5.48801 -36.28518,-27.32088 -30.71429,-38.21427  6.07942,13.15642 29.05583,30.04398 35.7143 ,26.42856 z;            m 173.10455,687.29076 c -21.40801, -5.48801 -36.28518,-27.32088 -30.71429,-38.21427  6.07942,13.15642 29.05583,30.04398 35.7143 ,26.42856 z;            m 215.51817,769.11764 c  -5.92479,-10.32985 -3.8368  ,-33.34739   6.53285,-35.08767 -5.03716,16.98041 -3.60021,32.45264  0.68366,32.96066 z;            m 215.51817,769.11764 c  -5.92479,-10.32985 -3.8368  ,-33.34739   6.53285,-35.08767 -5.03716,16.98041 -3.60021,32.45264  0.68366,32.96066 z;            m 173.10455,687.29076 c -21.40801, -5.48801 -36.28518,-27.32088 -30.71429,-38.21427  6.07942,13.15642 29.05583,30.04398 35.7143, 26.42856 z" attributeType="XML" dur="10s" keyTimes="0;0.97;0.98;0.99;1"/>
   </path>
   <path d="m167.13 710.15c-22.837-4.0594-39.499-18.392-33.929-29.286 6.0794 13.156 30.842 19.33 35.714 14.286z">
    <animate begin="5s" repeatCount="indefinite" attributeName="d" values="m 167.12622,710.14789 c -22.83659, -4.05944 -39.49946,-18.39231 -33.92857,-29.2857   6.07942,13.15642 30.84154,19.3297 35.71429,14.28571 z;            m 167.12622,710.14789 c -22.83659, -4.05944 -39.49946,-18.39231 -33.92857,-29.2857   6.07942,13.15642 30.84154,19.3297 35.71429,14.28571 z;            m 203.24591,769.2457 c -5.43244,-13.05271 -5.10467,-26.3833 3.83695,-28.76737 -4.63906,18.11258 1.3094,27.22806 5.73083,27.26019 z;            m 203.24591,769.2457 c -5.43244,-13.05271 -5.10467,-26.3833 3.83695,-28.76737 -4.63906,18.11258 1.3094,27.22806 5.73083,27.26019 z;      m 167.12622,710.14789 c -22.83659, -4.05944 -39.49946,-18.39231 -33.92857,-29.2857   6.07942,13.15642 30.84154,19.3297 35.71429,14.28571 z" attributeType="XML" dur="10s" keyTimes="0;0.97;0.98;0.99;1"/>
   </path>
   <path d="m166.43 763.98c-0.36069-4.817-11.468-4.2502-23.574 0.26127 0.77612-8.0568 12.911-10.975 24.35-11.473z">
    <animate begin="5s" repeatCount="indefinite" attributeName="d" values="m 166.43385,763.97969 c -0.36069,-4.81705 -11.46772,-4.25017 -23.5745 ,0.26127   0.77612,-8.05679 12.91133,-10.97488 24.35007,-11.47318 z;            m 166.43385,763.97969 c -0.36069,-4.81705 -11.46772,-4.25017 -23.5745 ,0.26127   0.77612,-8.05679 12.91133,-10.97488 24.35007,-11.47318 z;            m 179.29966,778.75324 c 3.35656,-2.33521 -2.38701,-6.69072 -11.35246,-11.27751 5.94603,-3.19837 11.33027,0.9901 17.71817,7.47514 z;            m 179.29966,778.75324 c 3.35656,-2.33521 -2.38701,-6.69072 -11.35246,-11.27751 5.94603,-3.19837 11.33027,0.9901 17.71817,7.47514 z;      m 166.43385,763.97969 c -0.36069,-4.81705 -11.46772,-4.25017 -23.5745 ,0.26127   0.77612,-8.05679 12.91133,-10.97488 24.35007,-11.47318 z" attributeType="XML" dur="10s" keyTimes="0;0.97;0.98;0.99;1"/>
   </path>
   <path d="m169.56 777.42c-1.3708-5.5747-17.059-1.0665-26.704 11.427-2.9866-9.0796 9.1434-19.832 27.227-22.639z">
    <animate begin="5s" repeatCount="indefinite" attributeName="d" values="m 169.56422,777.41869 c -1.37084,-5.57466 -17.05946,-1.06652 -26.70431,11.4268 -2.98657,-9.07964 9.14339,-19.83167 27.22734,-22.63871 z;            m 169.56422,777.41869 c -1.37084,-5.57466 -17.05946,-1.06652 -26.70431,11.4268 -2.98657,-9.07964 9.14339,-19.83167 27.22734,-22.63871 z;            m 176.24424,781.20917 c 3.42704,-2.75286 -7.80711,-4.86238 -18.21772,-2.50033 3.85461,-5.41819 14.04943,-8.73553 24.53564,-1.33831 z;            m 176.24424,781.20917 c 3.42704,-2.75286 -7.80711,-4.86238 -18.21772,-2.50033 3.85461,-5.41819 14.04943,-8.73553 24.53564,-1.33831 z;      m 169.56422,777.41869 c -1.37084,-5.57466 -17.05946,-1.06652 -26.70431,11.4268 -2.98657,-9.07964 9.14339,-19.83167 27.22734,-22.63871 z" attributeType="XML" dur="10s" keyTimes="0;0.97;0.98;0.99;1"/>
   </path>
   <path stroke-linejoin="round" d="m169.52 791.51c37.033-19.732 100-22.157 140.92 18.183" stroke="#60ca68" stroke-linecap="round" stroke-width="7" fill="none"/>
   <path d="m174.23 784.89c-2.1285 0.48626-8.4373 6.609-11.2 19.454-3.2645-7.5517-2.746-18.804 7.9351-25.363z">
    <animate begin="5s" repeatCount="indefinite" attributeName="d" values="m 174.23291,784.89031 c -2.12846,0.48626 -8.43727,6.60898 -11.20014,19.45417 -3.26449,-7.55172 -2.74603,-18.80356 7.9351,-25.36278 z;            m 174.23291,784.89031 c -2.12846,0.48626 -8.43727,6.60898 -11.20014,19.45417 -3.26449,-7.55172 -2.74603,-18.80356 7.9351,-25.36278 z;            m 173.94186,784.28158 c 1.03643,-1.84993 -7.50269,-1.94735 -16.263,5.08802 0.26647,-6.2635 10.05367,-12.91394 19.83706,-9.3767 z;            m 173.94186,784.28158 c 1.03643,-1.84993 -7.50269,-1.94735 -16.263,5.08802 0.26647,-6.2635 10.05367,-12.91394 19.83706,-9.3767 z;      m 174.23291,784.89031 c -2.12846,0.48626 -8.43727,6.60898 -11.20014,19.45417 -3.26449,-7.55172 -2.74603,-18.80356 7.9351,-25.36278 z" attributeType="XML" dur="10s" keyTimes="0;0.97;0.98;0.99;1"/>
   </path>
   <path stroke-linejoin="round" d="m387.97 803.98c38.043-23.772 71.213-27.713 118.19-9.0914" stroke="#60ca68" stroke-linecap="round" stroke-width="7" fill="none"/>
   <path stroke-linejoin="round" d="m462.46 534.93c87.014-63.583 179.27-4.0358 188.5 64.017 10.992 81.078-38.323 143.17-114.76 194.58 16.835 4.8318 35.607 2.996 66.67-13.132-73.521 92.203-127.29 36.244-73.072-29.906 45.792-55.872 27.292-130.19-29.919-153.15-36.43-14.62-104.67-34.61-145.5 36.59-153-147.46 88.61-281.95 108.08-99z" stroke="#18491c" stroke-width="10" fill="none"/>
  </g>
 </g>
</svg>
