<?xml version="1.0" encoding="UTF-8" standalone="no"?>
<svg id="grey" xmlns:rdf="http://www.w3.org/1999/02/22-rdf-syntax-ns#" xmlns="http://www.w3.org/2000/svg" height="700" width="700" version="1.1" xmlns:cc="http://creativecommons.org/ns#" xmlns:xlink="http://www.w3.org/1999/xlink" viewBox="0 0 700.00001 700.00001" xmlns:dc="http://purl.org/dc/elements/1.1/">
 <defs>
  <linearGradient id="lg">
   <stop stop-color="#b09d55" offset="0"/>
   <stop stop-color="#b6b291" offset="1"/>
  </linearGradient>
  <linearGradient id="lg1" y2="760.5" xlink:href="#lg" gradientUnits="userSpaceOnUse" y1="824.5" gradientTransform="translate(201.78 -254.93)" x2="243.73" x1="235.92"/>
  <symbol id="s1">
   <path d="m378.34 578.2c20.415 34.063 69.544 29.029 88.498 2.1732 24.953-35.354 25.097-87.334-0.37429-123.39-20.881-29.557-67.325-30.917-88.598-2.1829-25.75 34.782-21.538 86.67 0.4737 123.4z" fill-rule="evenodd" fill="url(#lg1)"/>
   <path opacity=".8" d="m382.66 569.68c16.38 27.927 56.212 25.017 70.475 2.8718 18.339-28.475 22.523-67.593-0.16053-100.61-16.745-24.374-53.626-26.987-70.694-3.4295-20.661 28.516-17.282 71.057 0.38008 101.17z" fill-rule="evenodd" fill-opacity=".74112" stroke="#000" stroke-width=".72207px"/>
   <path d="m410.42 513.46c0.45617 4.5668 5.1576 6.9159 8.3478 6.6494 6.8732-0.5743 13.238-9.8909 12.313-14.586-0.92024-4.6692-5-6.7104-9.1826-6.2204-5.408 0.63357-12.034 8.5917-11.478 14.157z" fill="#fff"/>
   <path d="m404.81 446.6c-18.158-0.48643-31.635 24.333-32.445 41.506-0.96852 20.527 13.647 26.933 27.338 15.636 10.869-8.9685 16.878-22.463 16.523-36.105-0.29745-11.424-2.0322-20.786-11.416-21.037z" fill="#fff"/>
  </symbol>
  <linearGradient id="lg2" y2="760.5" xlink:href="#lg" gradientUnits="userSpaceOnUse" y1="824.5" gradientTransform="matrix(.96593 .25882 -.25882 .96593 382.56 -308.3)" x2="243.73" x1="235.92"/>
  <symbol id="s2">
   <use xlink:href="#g8119" transform="translate(0 -352.36)" height="100%" width="100%" y="0" x="0"/>
   <path d="m337.48 542.14c10.903 38.186 59.661 46.039 84.92 25.004 33.253-27.691 46.845-77.863 31.574-119.28-12.52-33.954-57.029-47.288-85.014-25.039-33.875 26.932-43.236 78.142-31.48 119.32z" fill-rule="evenodd" fill="url(#lg2)"/>
   <path opacity=".8" d="m343.86 535.03c8.5939 31.215 47.822 38.714 67.33 21.014 25.084-22.759 39.25-59.46 25.885-97.225-9.8655-27.877-44.814-39.947-67.398-21.61-27.337 22.197-35.084 64.163-25.817 97.821z" fill-rule="evenodd" fill-opacity=".74112" stroke="#000" stroke-width=".72207px"/>
   <path d="m397.11 421.88c-17.413-5.1695-36.855 15.316-42.082 31.694-6.2484 19.577 6.2113 29.548 22.36 22.179 12.819-5.8499 22.117-17.329 25.304-30.598 2.6694-11.112 3.4169-20.604-5.582-23.275z" fill="#fff"/>
   <path d="m385.22 487.91c-0.74137 4.5293 3.1919 8.0152 6.3424 8.5834 6.7877 1.2242 15.347-6.1276 15.669-10.902 0.3196-4.7483-3.0928-7.7758-7.2598-8.3851-5.3877-0.78771-13.848 5.1843-14.751 10.704z" fill="#fff"/>
  </symbol>
 </defs>
 <g>
  <g transform="translate(0 -352.36)">
   <path stroke-linejoin="round" d="m439.82 971.75c298.3-108.27 201.99-585.92-26.87-599.62 67.46 154.86-185.29 131.44-82.02-1.42-143.69 28.61-189.85 134.29-171.12 255.97z" fill-rule="evenodd" stroke="#787878" stroke-linecap="round" stroke-width="10" fill="#c3c3c3"/>
   <path d="m498.35 699.85c-16.883-4.7873-36.148-1.458-50.96 11.797-37.014 33.124-48.773 94.184-37.693 142.6 0.76722 3.3528 1.7988 6.5118 3.0522 9.4822 19.09 11.528 43.628 20.669 82.478 23.54 2.4058-1.8242 4.6484-3.9017 6.6814-6.2432 31.689-36.497 44.407-89.37 34.019-140.48-4.3304-21.307-19.605-35.6-37.577-40.696z" fill-rule="evenodd" fill="#fff"/>
   <path d="m231.01 675.76c-17.547-0.25437-35.294 7.9475-46.17 24.584-27.18 41.575-22.734 103.6 0.5 147.5 1.6088 3.0399 3.4229 5.8243 5.4023 8.3691 21.423 6.1947 47.491 8.6726 85.76 1.3906 1.8517-2.3847 3.4801-4.9718 4.8379-7.7598 21.163-43.455 19.763-97.818-3.5-144.5-9.6974-19.46-28.151-29.313-46.83-29.584z" fill-rule="evenodd" fill="#fff"/>
   <use xlink:href="#s1" transform="translate(-206.48 264.17)">
    <animate id="main_anim" begin="11.5s;main_anim.end+11.5s" additive="sum" calcMode="spline" keySplines=".5 0 .5 1;.5 0 .5 1" attributeName="x" values="0;30;0" keyTimes="0;0.5;1" dur="0.7s"/>
    <animate begin="11.5s;main_anim.end+11.5s" additive="sum" calcMode="spline" keySplines="0 .5 .5 1;.5 0 .5 1;.5 0 1 .5" attributeName="y" values="0;20;-20;0" keyTimes="0;0.25;0.75;1" dur="0.7s"/>
   </use>
   <use xlink:href="#s2" transform="translate(58.948 302.29)">
    <animate begin="11.5s;main_anim.end+11.5s" additive="sum" calcMode="spline" keySplines=".5 0 .5 1;.5 0 .5 1" attributeName="x" values="0;30;0" keyTimes="0;0.5;1" dur="0.7s"/>
    <animate begin="11.5s;main_anim.end+11.5s" additive="sum" calcMode="spline" keySplines="0 .5 .5 1;.5 0 .5 1;.5 0 1 .5" attributeName="y" values="0;20;-20;0" keyTimes="0;0.25;0.75;1" dur="0.7s"/>
   </use>
   <path d="m194.09 516.29c-1.2158 0.0407-2.4656 0.2232-3.748 0.55664-35.909 9.3365-108.63 132.32-34 234-26.512 342.4 389.59 319.22 394 50 68.319-50.522 79.996-223.13-9-212-103.33 9-283.09-37.759-310 27-1.4935-42.527-12.531-100.39-37.252-99.557zm36.922 159.47c18.679 0.27077 37.133 10.124 46.83 29.584 23.263 46.682 24.663 101.04 3.5 144.5-1.3578 2.7879-2.9862 5.3751-4.8379 7.7598-38.269 7.282-64.337 4.8041-85.76-1.3906-1.9794-2.5448-3.7935-5.3292-5.4023-8.3691-23.234-43.902-27.68-105.92-0.5-147.5 10.876-16.637 28.623-24.838 46.17-24.584zm252.68 22.014c4.9732 0.0221 9.9097 0.7278 14.658 2.0742 17.973 5.0961 33.248 19.389 37.578 40.695 10.388 51.113-2.3304 103.99-34.02 140.48-2.0331 2.3415-4.2759 4.4199-6.6816 6.2441-38.85-2.8709-63.387-12.013-82.477-23.541-1.2533-2.9704-2.2855-6.1277-3.0527-9.4805-11.08-48.42 0.67938-109.48 37.693-142.6 10.646-9.5268 23.592-13.928 36.301-13.871z" fill-rule="evenodd" fill="#e2e2e2"/>
   <path d="m276.51 857.61c1.8517-2.3847 3.4801-4.9718 4.8379-7.7598 21.163-43.455 19.763-97.818-3.5-144.5-9.6974-19.46-28.151-29.313-46.83-29.584-17.547-0.25437-35.294 7.9475-46.17 24.584-27.18 41.575-22.734 103.6 0.5 147.5 1.6088 3.0399 3.4229 5.8243 5.4023 8.3691" stroke="#000" stroke-width="7" fill="none"/>
   <path stroke-linejoin="round" d="m173.84 850.35c27.938 11.183 61.1 18.187 122 3" stroke="#929292" stroke-linecap="round" stroke-width="7" fill="none"/>
   <path d="m495.22 887.27c2.4058-1.8242 4.6484-3.9017 6.6814-6.2432 31.689-36.497 44.407-89.37 34.019-140.48-4.3304-21.307-19.605-35.6-37.577-40.696-16.883-4.7873-36.148-1.458-50.96 11.797-37.014 33.124-48.773 94.184-37.693 142.6 0.76722 3.3528 1.7988 6.5118 3.0522 9.4822" stroke="#000" stroke-width="7" fill="none"/>
   <path stroke-linejoin="round" d="m397.94 853.69c24.092 18.033 54.311 33.381 117.07 34.474" stroke="#929292" stroke-linecap="round" stroke-width="7" fill="none"/>
   <path d="m318.74 858.79c-1.8582-0.90817-6.3047 9.6654-3.4093 13.385 4.809 6.1771 14.781 5.1371 14.142 2.7779-0.9131-3.37-5.2714-4.8918-6.7051-8.2016-1.7038-3.9334 0.18648-5.9012-4.0278-7.9609z" fill="#929292"/>
   <path d="m365.96 880.87c0.70411 1.9829 11.063 2.8271 13.393-2.5 2.4057-5.5005-0.29908-12.885-1.9643-13.304-2.4854-0.62519-2.6875 4.9646-5 8.5714-2.4316 3.7927-7.0867 5.3787-6.4286 7.2321z" fill="#929292"/>
   <path d="m323.8 840.99c22.086-0.25893 36.477-0.62275 50.381 1.5152 5.5062 0.84663-4.6379-8.8188-22.223-9.5964-26.205-0.33095-30.859 8.1129-28.158 8.0812z" fill="#929292"/>
   <path d="m292.81 918.95c-0.14562-2.8487 18.243-7.6256 33.424-6.731 7.5905 0.44732 24.004 4.0293 38.11 4.2392 14.106 0.20983 39.097-8.1383 39.118-5.3874 0.0244 3.1899-19.967 11.551-42.538 12.248-10.898 0.33648-26.442-4.0895-40.711-4.8114-14.269-0.72188-27.263 3.1659-27.403 0.44243z" fill="#929292"/>
   <path d="m172.63 566.46c-2.8699-0.82574-19.602 36.284-20.427 66.257-1.06 38.536 13.302 61.724 17.456 60.458 2.9965-0.9133-8.1877-23.064-9.253-56.996-0.85003-27.075 14.452-69.078 12.224-69.719z" fill="#929292"/>
   <path d="m188.18 699.33c-20.337-14.059-20.928-30.535-16.429-39.286 3.5794 13.156 14.77 28.973 22.5 27.857z"/>
   <path d="m173.42 717.54c-21.408-5.488-36.285-27.321-30.714-38.214 6.0794 13.156 29.056 30.044 35.714 26.429z"/>
   <path stroke-linejoin="round" d="m194.09 516.29c-1.2158 0.0407-2.4656 0.2232-3.748 0.55664-35.909 9.3365-108.63 132.32-34 234-26.512 342.4 389.59 319.22 394 50 68.319-50.522 79.996-223.13-9-212-103.33 9-283.09-37.759-310 27-1.4935-42.527-12.531-100.39-37.252-99.557z" stroke="#929292" stroke-linecap="round" stroke-width="10" fill="none"/>
   <path d="m167.45 740.4c-22.837-4.0594-39.499-18.392-33.929-29.286 6.0794 13.156 30.842 19.33 35.714 14.286z"/>
   <path d="m540.97 766.81c12.129 1.3454 45.44-3.0548 42.254-19.073-13.418 8.3328-43.286 9.599-44.829 4.0642z"/>
   <path stroke-linejoin="round" d="m679.34 671.85c-86.273 111.89-268.06 54.974-336-10 0.21805 20.724 8.317 40.508 19 56-41.132-29.045-70.867-60.622-88-95-3.8195 15.173-1.7869 32.853 13 56-90.333-90.415-56.176-124.91 12.828-150.83 210.33-79.006 309.87 65.374 309.22 77.828-3.3062 63.298-72.411-6.6754-94.05-25 43.843 47.245 79.466 107.33 164 91z" fill-rule="evenodd" stroke="#bababa" stroke-linecap="round" stroke-width="10" fill="#f1f1f1"/>
   <path stroke-linejoin="round" d="m318.2 522.03c176.22 78.903 38.728 159.87 159.1 205.06" stroke="#bababa" stroke-linecap="round" stroke-width="5" fill="none"/>
   <path stroke-linejoin="round" d="m378.3 507.89c179.49 90.188 51.746 150.69 229.81 214.96" stroke="#bababa" stroke-linecap="round" stroke-width="5" fill="none"/>
  </g>
 </g>
</svg>
