<?xml version="1.0" encoding="UTF-8" standalone="no"?>
<!-- Created with Inkscape (http://www.inkscape.org/) -->
<svg id="red" xmlns:rdf="http://www.w3.org/1999/02/22-rdf-syntax-ns#" xmlns="http://www.w3.org/2000/svg" height="700" width="700" version="1.1" xmlns:cc="http://creativecommons.org/ns#" xmlns:xlink="http://www.w3.org/1999/xlink" viewBox="0 0 700.00001 700.00001" xmlns:dc="http://purl.org/dc/elements/1.1/">
 <defs>
  <linearGradient id="lgb1">
   <stop stop-color="#f5f5f5" offset="0"/>
   <stop stop-color="#fff" offset="1"/>
  </linearGradient>
  <linearGradient id="lgb2">
   <stop stop-color="#e1e1e1" offset="0"/>
   <stop stop-color="#e1e1e1" stop-opacity="0" offset="1"/>
  </linearGradient>
  <linearGradient id="lgb3">
   <stop stop-color="#f8b90e" offset="0"/>
   <stop stop-color="#f83304" offset="1"/>
  </linearGradient>
  <linearGradient id="lg1" y2="346.51" xlink:href="#lgb3" gradientUnits="userSpaceOnUse" x2="316.07" y1="395.08" x1="296.23"/>
  <linearGradient id="lg2" y2="325.18" xlink:href="#lgb3" gradientUnits="userSpaceOnUse" x2="470.63" y1="344.88" x1="485.34"/>
  <linearGradient id="lg3" y2="114.07" xlink:href="#lgb2" gradientUnits="userSpaceOnUse" x2="911" gradientTransform="translate(-347.19 401.86)" y1="150.49" x1="818.71"/>
  <linearGradient id="lg4" y2="135.21" xlink:href="#lgb2" gradientUnits="userSpaceOnUse" x2="929.59" gradientTransform="translate(-347.19 401.86)" y1="172" x1="835.02"/>
  <linearGradient id="lg5" y2="153.69" xlink:href="#lgb2" gradientUnits="userSpaceOnUse" x2="979.99" gradientTransform="translate(-347.19 401.86)" y1="187.93" x1="857.97"/>
  <linearGradient id="lg6" y2="465.52" xlink:href="#lgb1" gradientUnits="userSpaceOnUse" x2="992.23" gradientTransform="translate(-347.19 49.497)" y1="529.16" x1="833.78"/>
  <linearGradient id="lg7" y2="439.28" xlink:href="#lgb1" gradientUnits="userSpaceOnUse" x2="950.57" gradientTransform="translate(-347.19 49.497)" y1="466.86" x1="905.76"/>
  <linearGradient id="lg8" y2="394.68" xlink:href="#lgb1" gradientUnits="userSpaceOnUse" x2="1021.3" gradientTransform="translate(-347.19 49.497)" y1="430.03" x1="964.79"/>
  <linearGradient id="lg9" y2="446.38" xlink:href="#lgb1" gradientUnits="userSpaceOnUse" x2="1040.5" gradientTransform="translate(-347.19 49.497)" y1="492.35" x1="984.06"/>
  <linearGradient id="lgA" y2="465.52" xlink:href="#lgb1" gradientUnits="userSpaceOnUse" x2="992.23" gradientTransform="matrix(-1 0 0 1 1038.5 110.5)" y1="529.16" x1="833.78"/>
  <linearGradient id="lgB" y2="153.69" xlink:href="#lgb2" gradientUnits="userSpaceOnUse" x2="979.99" gradientTransform="matrix(-1 0 0 1 1038.5 462.86)" y1="187.93" x1="857.97"/>
  <linearGradient id="lgC" y2="135.21" xlink:href="#lgb2" gradientUnits="userSpaceOnUse" x2="929.59" gradientTransform="matrix(-1 0 0 1 1045 468.36)" y1="172" x1="835.02"/>
  <linearGradient id="lgD" y2="114.07" xlink:href="#lgb2" gradientUnits="userSpaceOnUse" x2="911" gradientTransform="matrix(-1 0 0 1 1033.7 471.86)" y1="150.49" x1="818.71"/>
  <linearGradient id="lgE" y2="446.38" xlink:href="#lgb1" gradientUnits="userSpaceOnUse" x2="1040.5" gradientTransform="matrix(-1 0 0 1 1038.5 110.5)" y1="492.35" x1="984.06"/>
  <linearGradient id="lgF" y2="439.28" xlink:href="#lgb1" gradientUnits="userSpaceOnUse" x2="950.57" gradientTransform="matrix(-1 0 0 1 1038.5 110.5)" y1="466.86" x1="905.76"/>
  <linearGradient id="lgG" y2="394.68" xlink:href="#lgb1" gradientUnits="userSpaceOnUse" x2="1021.3" gradientTransform="matrix(-1 0 0 1 1038.5 110.5)" y1="430.03" x1="964.79"/>
 </defs>
 <g>
  <g transform="translate(0 -352.36)">
   <path stroke-linejoin="round" d="m368.76 585.02c10.157-50.491 54.582-70.499 87.894-81.047l41.488 32.314c36.504-77.256-43.851-88.91-82.966-52.64 59.255-74.212-51.003-72.207-111.4-75.996z" fill-rule="evenodd" stroke="#7f0808" stroke-linecap="round" stroke-width="10" fill="#b10c0c"/>
   <path stroke-linejoin="round" d="m436.43 533.79c-23.096-132.88 95.806-7.0874 95.714 105.71z" fill-rule="evenodd" stroke="#f00" stroke-linecap="round" stroke-width="10" fill="#f13c3c"/>
   <path stroke-linejoin="round" d="m372.75 591.23c-1.06-142.72-73.54-197.19-96.98-213.65-28.928-20.314-81.02-12.553-112.63 11.617-36.51 27.914-33.162 57.432 16.162 72.226-3.2744 19.604-5.4787 35.316 4.0406 65.155l35.86 31.466c72.583-5.8044 116.17 8.2505 153.54 33.184z" fill-rule="evenodd" stroke="#7f0808" stroke-linecap="round" stroke-width="10" fill="#b10c0c"/>
   <path stroke-linejoin="round" d="m195.97 720.53c-53.929-42.349-82.782-32.138-127.28 16.668 3.5881-15.282-2.3237-24.368 30.305-58.589-113.59 13.207-73.446 168.13-7.0711 85.863-41.146 79.385-7.476 179.36 100.01 165.67 3.6079 62.751 35.788 97.527 121.72 74.751z" fill-rule="evenodd" stroke="#7f0808" stroke-linecap="round" stroke-width="10" fill="#b10c0c"/>
   <path stroke-linejoin="round" d="m193.57 735.93c-105.62-93.19 32.25-379.5 42.86-162.85z" fill-rule="evenodd" stroke="#f00" stroke-linecap="round" stroke-width="10" fill="#f13c3c"/>
   <path d="m200.52 554.4c5.4656 35.287-0.0444 74.029-0.76288 103l10.441-31.463c-0.32336-27.301-2.6512-49.854-7.3426-71.812-1.8912-8.8516-3.8098-9.2428-2.3352 0.27793z" fill-rule="evenodd" fill="#f00"/>
   <g transform="translate(-1,-1.5)">
    <animate from="1" dur="0.4s" attributeName="opacity" begin="12s;ear_left_in_2.end+10s" to="0"/>
    <animateTransform id="ear_left_out" begin="12s;ear_left_in_2.end+10s" from="185 640" attributeName="transform" to="185 640" attributeType="XML" additive="sum" dur="0.4s" type="translate"/>
    <animateTransform begin="12s;ear_left_in_2.end+10s" from="1" attributeName="transform" to="4 1.5" attributeType="XML" additive="sum" dur="0.4s" type="scale"/>
    <animateTransform begin="12s;ear_left_in_2.end+10s" from="-185 -640" attributeName="transform" to="-185 -640" attributeType="XML" additive="sum" dur="0.4s" type="translate"/>
    <animateTransform id="ear_left_in" begin="ear_left_out.end" from="355 675" attributeName="transform" to="185 640" attributeType="XML" additive="sum" dur="0.2s" type="translate"/>
    <animateTransform begin="ear_left_out.end" from="0.4" attributeName="transform" to="1" attributeType="XML" additive="sum" dur="0.2s" type="scale"/>
    <animateTransform begin="ear_left_out.end" from="-355 -675" attributeName="transform" to="-185 -640" attributeType="XML" additive="sum" dur="0.2s" type="translate"/>
    <animate from="1" dur="0.2s" attributeName="opacity" begin="ear_left_in.end" to="0"/>
    <animateTransform id="ear_left_out_2" begin="ear_left_in.end" from="185 640" attributeName="transform" to="185 640" attributeType="XML" additive="sum" dur="0.2s" type="translate"/>
    <animateTransform begin="ear_left_in.end" from="1" attributeName="transform" to="4 1.5" attributeType="XML" additive="sum" dur="0.2s" type="scale"/>
    <animateTransform begin="ear_left_in.end" from="-185 -640" attributeName="transform" to="-185 -640" attributeType="XML" additive="sum" dur="0.2s" type="translate"/>
    <animateTransform id="ear_left_in_2" begin="ear_left_out_2.end" from="355 675" attributeName="transform" to="185 640" attributeType="XML" additive="sum" dur="0.4s" type="translate"/>
    <animateTransform begin="ear_left_out_2.end" from="0.4" attributeName="transform" to="1" attributeType="XML" additive="sum" dur="0.4s" type="scale"/>
    <animateTransform begin="ear_left_out_2.end" from="-355 -675" attributeName="transform" to="-185 -640" attributeType="XML" additive="sum" dur="0.4s" type="translate"/>
    <path d="m199.11 673.13c-12.611-8.6695-37.519-25.517-47.767-29.153-5.9259 4.5855-10.434 4.1354-14.473 2.0218 7.8803 3.5797-7.0141 10.208-13.049 8.8456 8.2339 2.4903-22.797 26.921-35.589-3.2855-18.185 9.3924-34.141 10.511-46.028-11.626-44.296-20.211 100.49-123.88 115.78-57.622 17.732 9.2038 23.578 32.897 54.907 40.784z" fill-rule="evenodd" fill="url(#lgA)"/>
    <path d="m43.856 608.54c45.893 7.4188 97.848 8.7355 157.98 54.371l-3.9726 8.7148c-12.611-8.6695-36.27-24.017-46.518-27.652-0.24207 0.18732-0.47744 0.3527-0.71484 0.52344-29.18-11.96-84.438-20.66-115.38-24.59z" fill-rule="evenodd" fill="url(#lgB)"/>
    <path d="m109.42 600.82c33.521 4.7185 68.012 29.48 99.678 40.68l-3.1777 7.2617c-21.47-10.76-63.83-32.73-102.9-40.89z" fill-rule="evenodd" fill="url(#lgC)"/>
    <path d="m127.17 573.48c25.956 16.346 61.645 38.641 87.085 51.279l-3.4434 5.832c-15.759-8.7979-63.331-31.011-90.291-48.438z" fill-rule="evenodd" fill="url(#lgD)"/>
    <path stroke-linejoin="round" d="m199.12 673.89c-12.611-8.6695-37.525-26.281-47.773-29.916-5.9259 4.5855-10.434 4.1354-14.473 2.0218 7.8803 3.5797-7.0141 10.208-13.049 8.8456 8.2339 2.4903-22.797 26.921-35.589-3.2855-18.185 9.3924-34.141 10.511-46.028-11.626-44.296-20.211 100.49-123.88 115.78-57.622 12.076 12.739 25.835 32.746 57.164 40.633z" stroke="#7f7f7f" stroke-linecap="round" stroke-width="4.8482" fill="none"/>
    <path d="m60.662 562.4c-21.395-16.944-43.277-7.3738-51.001 7.5057-9.9029 19.077-0.9336 35.333 9.395 40.388 17.611 8.619 31.456 1.5093 40.264-10.008 7.947-10.391 11.341-29.967 1.3422-37.886z" fill-rule="evenodd" stroke="#7f7f7f" stroke-width="4.8482" fill="url(#lgE)"/>
    <path stroke-linejoin="round" d="m54.622 593.85c4.6906 20.11 17.742 36.422 56.37 12.152 19.515 0.61014 24.848-26.077 17.783-28.236 18.672 7.8359 24.589-45.265 6.7106-47.536 6.7654 0.57829 6.9913-15.232-3.6909-14.297 34.372-2.9963 14.906-37.436-2.0132-30.738-9.4132-39.394-79.446-6.9603-36.238 31.095-1.051 4.4558 0.39562 14.045 5.704 13.76-3.2308 1.6615-6.0501 3.8204-5.8718 6.6122-38.901-20.836-44.042 34.515-38.754 57.186z" fill-rule="evenodd" stroke="#7f7f7f" stroke-linecap="round" stroke-width="4.8482" fill="url(#lgF)"/>
    <path stroke-linejoin="round" d="m50.763 556.32c-10.172-5.7358-21.407-3.3793-27.346 6.4335-5.7863 9.5605-0.9781 18.308 4.6974 22.696 9.4593 7.3127 15.617-2.9884 14.328-8.0112" stroke="#7f7f7f" stroke-linecap="round" stroke-width="4.8482" fill="none"/>
    <path stroke-linejoin="round" d="m79.955 487.52c-0.0545 7.8685-1.0882 17.368 13.589 16.262 8.6186-0.6492 14.608-8.8195 9.5627-15.905-4.6211-6.4897-10.791-4.6185-13.421-0.53612" stroke="#7f7f7f" stroke-linecap="round" stroke-width="4.8482" fill="none"/>
    <path d="m79.452 525.94c11.85-5.7244 4.6848-35.946-10.066-44.319-45.187-25.65-91.205 32.092-40.264 76.487 20.108 17.524 61.888-13.434 50.33-32.167z" fill-rule="evenodd" stroke="#7f7f7f" stroke-width="4.8482" fill="url(#lgG)"/>
    <path stroke-linejoin="round" d="m88.511 651.57c5.0933-3.0907 5.1205-8.7906 4.6974-13.046" stroke="#7f7f7f" stroke-linecap="round" stroke-width="4.8482" fill="none"/>
    <path stroke-linejoin="round" d="m41.536 639.42c11.16 2.7305 16.818-6.3907 16.777-10.901-0.0517-5.7221-5.8441-9.4056-9.3318-7.3879-6.5577 3.7938-3.2924 10.469-1.0697 6.8517" stroke="#7f7f7f" stroke-linecap="round" stroke-width="4.8482" fill="none"/>
    <path stroke-linejoin="round" d="m110.82 606c-12.428-2.0106-8.4272-13.825-4.8654-16.441" stroke="#7f7f7f" stroke-linecap="round" stroke-width="4.8482" fill="none"/>
    <path stroke-linejoin="round" d="m129.95 485.55c1.3997 5.1229 2.1178 11.139 0.67098 15.369" stroke="#7f7f7f" stroke-linecap="round" stroke-width="4.8482" fill="none"/>
    <path stroke-linejoin="round" d="m58.145 560.43c11.774-4.1921 26.022-3.4679 34.224 1.6084" stroke="#7f7f7f" stroke-linecap="round" stroke-width="4.8482" fill="none"/>
    <path stroke-linejoin="round" d="m98.745 530.05c4.3869 0.26088 6.8113-0.8019 8.5561-2.3232" stroke="#7f7f7f" stroke-linecap="round" stroke-width="4.8482" fill="none"/>
    <path stroke-linejoin="round" d="m79.458 526.2c-8.2725 2.8033-14.08-1.6509-17.083-6.571" stroke="#7f7f7f" stroke-linecap="round" stroke-width="4.8482" fill="none"/>
   </g>
   <path stroke-linejoin="round" d="m221.79 864.86c-20.464 15.874-29.531 37.7-30 65 20.62-10.438 32.323-28.273 42.5-45.357" stroke="#7f0808" stroke-linecap="round" stroke-width="5" fill="none"/>
   <path stroke-linejoin="round" d="m81.868 788.41c46.763-50.646 99.442-30.592 79.204 58.237 9.0571-15.613 21.148-27.434 37.5-35" stroke="#7f0808" stroke-linecap="round" stroke-width="5" fill="none"/>
   <path d="m463.15 521.53c0.19814-4.5877 1.4761-4.3919 2.0203-0.12627 0.66761 5.2334 2.0019 21.045 5.3033 31.188l-6.1872-7.5761c-0.8328-6.8877-1.4772-15.595-1.1364-23.486z" fill-rule="evenodd" fill="#f00"/>
   <g>
    <animate from="1" dur="0.4s" attributeName="opacity" begin="12s;ear_right_in_2.end+10s" to="0"/>
    <animateTransform id="ear_right_out" begin="12s;ear_right_in_2.end+10s" from="505 570" attributeName="transform" to="505 570" attributeType="XML" additive="sum" dur="0.4s" type="translate"/>
    <animateTransform begin="12s;ear_right_in_2.end+10s" from="1" attributeName="transform" to="4 1.5" attributeType="XML" additive="sum" dur="0.4s" type="scale"/>
    <animateTransform begin="12s;ear_right_in_2.end+10s" from="-505 -570" attributeName="transform" to="-505 -570" attributeType="XML" additive="sum" dur="0.4s" type="translate"/>
    <animateTransform id="ear_right_in" begin="ear_right_out.end" from="330 625" attributeName="transform" to="505 570" attributeType="XML" additive="sum" dur="0.2s" type="translate"/>
    <animateTransform begin="ear_right_out.end" from="0.4" attributeName="transform" to="1" attributeType="XML" additive="sum" dur="0.2s" type="scale"/>
    <animateTransform begin="ear_right_out.end" from="-330 -625" attributeName="transform" to="-505 -570" attributeType="XML" additive="sum" dur="0.2s" type="translate"/>
    <animate from="1" dur="0.2s" attributeName="opacity" begin="ear_right_in.end" to="0"/>
    <animateTransform id="ear_right_out_2" begin="ear_right_in.end" from="505 570" attributeName="transform" to="505 570" attributeType="XML" additive="sum" dur="0.2s" type="translate"/>
    <animateTransform begin="ear_right_in.end" from="1" attributeName="transform" to="4 1.5" attributeType="XML" additive="sum" dur="0.2s" type="scale"/>
    <animateTransform begin="ear_right_in.end" from="-505 -570" attributeName="transform" to="-505 -570" attributeType="XML" additive="sum" dur="0.2s" type="translate"/>
    <animateTransform id="ear_right_in_2" begin="ear_right_out_2.end" from="330 625" attributeName="transform" to="505 570" attributeType="XML" additive="sum" dur="0.4s" type="translate"/>
    <animateTransform begin="ear_right_out_2.end" from="0.4" attributeName="transform" to="1" attributeType="XML" additive="sum" dur="0.4s" type="scale"/>
    <animateTransform begin="ear_right_out_2.end" from="-330 -625" attributeName="transform" to="-505 -570" attributeType="XML" additive="sum" dur="0.4s" type="translate"/>
    <path d="m507.67 597.13c12.611-8.6695 22.019-10.517 32.267-14.153 5.9259 4.5855 10.434 4.1354 14.473 2.0218-7.8803 3.5797 7.0141 10.208 13.049 8.8456-8.2339 2.4903 22.797 26.921 35.589-3.2855 18.185 9.3924 34.141 10.511 46.028-11.626 44.296-20.211-100.49-123.88-115.78-57.622-17.732 9.2038-28.828 26.147-60.157 34.034z" fill-rule="evenodd" fill="url(#lg6)"/>
    <path d="m647.43 547.54c-46.643 8.1688-97.098 20.986-148.48 39.121l8.7226 10.465c12.611-8.6695 22.02-10.517 32.268-14.152 0.24207 0.18732 0.47744 0.3527 0.71484 0.52344 29.171-11.97 84.431-20.667 115.37-24.601z" fill-rule="evenodd" fill="url(#lg5)"/>
    <path d="m585.86 530.82c-33.521 4.7185-68.762 29.98-100.43 38.93l7.4277 9.5117c21.468-10.765 60.831-27.484 99.898-35.642z" fill-rule="evenodd" fill="url(#lg4)"/>
    <path d="m560.61 509.98c-30.513 12.575-58.241 33.708-87.335 44.029l5.4434 8.832c15.759-8.7979 61.081-28.261 89.291-43.188z" fill-rule="evenodd" fill="url(#lg3)"/>
    <path stroke-linejoin="round" d="m507.67 597.13c11.611-12.17 22.019-10.517 32.267-14.153 5.9259 4.5855 10.434 4.1354 14.473 2.0218-7.8803 3.5797 7.0141 10.208 13.049 8.8456-8.2339 2.4903 22.797 26.921 35.589-3.2855 18.185 9.3924 34.141 10.511 46.028-11.626 44.296-20.211-100.49-123.38-115.78-57.122-15.232 11.204-31.078 21.897-61.407 32.784z" stroke="#7f7f7f" stroke-linecap="round" stroke-width="4.8482" fill="none"/>
    <path d="m630.62 501.4c21.395-16.944 43.277-7.3738 51.001 7.5057 9.9029 19.077 0.9336 35.333-9.395 40.388-17.611 8.619-31.456 1.5093-40.264-10.008-7.947-10.391-11.341-29.967-1.3422-37.886z" fill-rule="evenodd" stroke="#7f7f7f" stroke-width="4.8482" fill="url(#lg9)"/>
    <path stroke-linejoin="round" d="m636.66 532.85c-4.6906 20.11-17.742 36.422-56.37 12.152-19.515 0.61014-24.848-26.077-17.783-28.236-18.672 7.8359-24.589-45.265-6.7106-47.536-6.7654 0.57829-6.9913-15.232 3.6909-14.297-34.372-2.9963-14.906-37.436 2.0132-30.738 9.4132-39.394 79.446-6.9603 36.238 31.095 1.051 4.4558-0.39562 14.045-5.704 13.76 3.2308 1.6615 6.0501 3.8204 5.8718 6.6122 38.901-20.836 44.042 34.515 38.754 57.186z" fill-rule="evenodd" stroke="#7f7f7f" stroke-linecap="round" stroke-width="4.8482" fill="url(#lg7)"/>
    <path stroke-linejoin="round" d="m640.52 495.32c10.172-5.7358 21.407-3.3793 27.346 6.4335 5.7863 9.5605 0.9781 18.308-4.6974 22.696-9.4593 7.3127-15.617-2.9884-14.328-8.0112" stroke="#7f7f7f" stroke-linecap="round" stroke-width="4.8482" fill="none"/>
    <path stroke-linejoin="round" d="m611.33 426.52c0.0545 7.8685 1.0882 17.368-13.589 16.262-8.6186-0.6492-14.608-8.8195-9.5627-15.905 4.6211-6.4897 10.791-4.6185 13.421-0.53612" stroke="#7f7f7f" stroke-linecap="round" stroke-width="4.8482" fill="none"/>
    <path d="m611.83 464.94c-11.85-5.7244-4.6848-35.946 10.066-44.319 45.187-25.65 91.205 32.092 40.264 76.487-20.108 17.524-61.888-13.434-50.33-32.167z" fill-rule="evenodd" stroke="#7f7f7f" stroke-width="4.8482" fill="url(#lg8)"/>
    <path stroke-linejoin="round" d="m602.77 590.57c-5.0933-3.0907-5.1205-8.7906-4.6974-13.046" stroke="#7f7f7f" stroke-linecap="round" stroke-width="4.8482" fill="none"/>
    <path stroke-linejoin="round" d="m649.75 578.42c-11.16 2.7305-16.818-6.3907-16.777-10.901 0.0517-5.7221 5.8441-9.4056 9.3318-7.3879 6.5577 3.7938 3.2924 10.469 1.0697 6.8517" stroke="#7f7f7f" stroke-linecap="round" stroke-width="4.8482" fill="none"/>
    <path stroke-linejoin="round" d="m580.46 545c12.428-2.0106 8.4272-13.825 4.8654-16.441" stroke="#7f7f7f" stroke-linecap="round" stroke-width="4.8482" fill="none"/>
    <path stroke-linejoin="round" d="m561.33 424.55c-1.3997 5.1229-2.1178 11.139-0.67098 15.369" stroke="#7f7f7f" stroke-linecap="round" stroke-width="4.8482" fill="none"/>
    <path stroke-linejoin="round" d="m633.14 499.43c-11.774-4.1921-26.022-3.4679-34.224 1.6084" stroke="#7f7f7f" stroke-linecap="round" stroke-width="4.8482" fill="none"/>
    <path stroke-linejoin="round" d="m592.54 469.05c-4.3869 0.26088-6.8113-0.8019-8.5561-2.3232" stroke="#7f7f7f" stroke-linecap="round" stroke-width="4.8482" fill="none"/>
    <path stroke-linejoin="round" d="m611.82 465.2c8.2725 2.8033 14.08-1.6509 17.083-6.571" stroke="#7f7f7f" stroke-linecap="round" stroke-width="4.8482" fill="none"/>
   </g>
   <path d="m416.22 168.97c-18.703 11.064-35.651 27.065-44.045 51.156 0.326 6.0721 0.5229 12.311 0.57031 18.736-17.801-11.876-37.018-22.001-60.106-28.722-17.151-4.9928-36.438-8.1074-58.867-8.6666-11.977 11.412-22.515 25.543-30.916 42.809-78.241 160.81-12.912 283.97 68.57 355.71-0.81936 34.891-16.546 82.526 19.287 92.143 29.68 7.9651 59.999-54.621 110.71-56.428 38.815-1.3827 59.362 25.555 85 17.857 36.449-10.944 23.27-64.544 17.857-106.43 43.92-55.34 83.79-207.07-54.28-348.56-12.05-12.34-31.16-22.88-53.78-29.6z" fill-rule="evenodd" transform="translate(0 352.36)" fill="#f13c3c"/>
   <path stroke-linejoin="round" d="m250.24 205.72c-11.977 11.412-18.98 21.3-27.38 38.566-78.241 160.81-12.912 283.97 68.57 355.71-0.81936 34.891-16.546 82.526 19.287 92.143 29.68 7.9651 59.999-54.621 110.71-56.428 38.815-1.3827 59.362 25.555 85 17.857 36.449-10.944 23.27-64.544 17.857-106.43 43.91-55.35 83.78-207.08-54.29-348.57-12.05-12.34-31.16-22.88-53.78-29.6" transform="translate(0 352.36)" stroke="#f00" stroke-linecap="round" stroke-width="10" fill="none"/>
   <path stroke-linejoin="round" d="m319.21 1016c29.37-36.75 135.44-65.51 187.89-39.4-13.67-268.85-198.14-194.23-187.89 39.4z" fill-rule="evenodd" stroke="#f00" stroke-linecap="round" stroke-width="7" fill="#7f0808"/>
   <path stroke-linejoin="round" d="m480.83 579.79l-133.34 21.22-1.4 41.28c36.02-20.4 92.97-33.36 135.29-26.07l-0.55-36.43z" fill-rule="evenodd" transform="translate(0 352.36)" stroke="#f00" stroke-linecap="round" stroke-width="7" fill="#fff"/>
   <path stroke-linejoin="round" d="m419.51 453.12c-23.73 0.12-47.97 17.14-66.72 48.02l116.9-18.18c-14.72-20.41-32.3-29.93-50.18-29.84z" fill-rule="evenodd" transform="translate(0 352.36)" stroke="#f00" stroke-linecap="round" stroke-width="7" fill="#fff"/>
   <path d="m407.85 897.56c-13.354 0.60433 5.8619-24.833-9.3439-25.506-16.068-0.71154-20.898 25.106-19.698 32.83 1.3638 8.7762 9.9277 17.691 24.749 17.678 12.696-0.0115 22.668-6.584 27.022-17.93 3.7392-9.7447 6.4116-29.736-7.5761-31.062-16.891-1.6019-6.474 23.598-15.152 23.991z" fill-rule="evenodd" fill="#570606"/>
   <path d="m228.41 672.26c-21.229-6.2023-29.945-21.982-24.017-31.268 6.0794 13.156 16.541 20.913 25.725 24.874z"/>
   <path d="m222.58 687.47c-21.408-5.488-41.428-19.142-34.786-31.464 6.6151 15.299 35.035 26.591 37.944 19.405z"/>
   <path d="m220.75 703.25c-20.515-2.4523-35.387-7.1686-33.013-22.281 6.332 12.273 32.932 16.925 33.341 9.7378z"/>
   <path d="m226 743.64c-1.6577-3.8032-20.827-4.2978-30.088 1.0625 1.7485-10.141 15.816-8.8434 27.857-9.5256z"/>
   <path d="m232.34 753.18c-1.9103-3.6138-27.994 1.2617-34.288 10.663-3.7442-10.015 15.912-15.413 29.973-18.116z"/>
   <path d="m239.05 761.39c-2.51-4.3398-16.954 2.4415-21.922 11.59-3.7442-10.015 10.68-15.078 17.671-18.222z"/>
   <path d="m227.86 316.07c-19.28 48.06-6.06 81.74 18.8 99.2 43.7-14.78 79.22-21.89 112.97-22.27 5.36-8.58 9.34-18.73 11.44-30.5l-143.21-46.43z" fill-rule="evenodd" transform="translate(0 352.36)" fill="#fff"/>
   <path d="m253.72 324.46c-11.67 42.01-1.6 69.78 17 83.22 30.17-8.79 56.55-13.51 81.71-14.49 7.49-8.09 13.93-18.23 18.59-30.44 0.02-0.08 0.04-0.16 0.05-0.25l-117.35-38.04z" fill-rule="evenodd" transform="translate(0 352.36)" fill="url(#lg1)"/>
   <path opacity=".8" d="m284.13 334.31c-11.99 32.81 0.87 56.77 20.64 64.84 14.45-2.94 28.13-4.81 41.42-5.64 9.22-6.47 17.61-16.73 23.7-31.39l-85.76-27.81z" fill-rule="evenodd" transform="translate(0 352.36)"/>
   <path d="m229.1 669.11c-10.713 31.71-15.827 63.786 16.263 98.288" stroke="#000" stroke-width="7" fill="none"/>
   <path stroke-linejoin="round" d="m235.11 771.64c53.966-19.267 95.453-27.442 135.41-26.163" stroke="#f00" stroke-linecap="round" stroke-width="7" fill="none"/>
   <path stroke-linejoin="round" d="m226.43 668.08 159.29 50.714-7.1429-25.714" stroke="#000" stroke-linecap="round" stroke-width="7" fill="none"/>
   <path d="m520.57 650.11c18.194-9.5952 23.695-22.339 20.088-32.339-3.9366 14.049-20.892 30.911-23.357 25.022z"/>
   <path d="m523.16 659.84c20.337-2.988 25.659-11.267 22.052-21.268-1.4366 11.192-22.856 19.839-25.322 13.95z"/>
   <path d="m531.54 699.19c0.39504-4.182 18.554-4.2978 27.815 1.0625-1.7485-10.141-16.447-8.9697-28.488-9.6518z"/>
   <path d="m530.69 710c0.52131-4.2451 24.711 0.5041 31.005 9.905 3.7442-10.015-16.543-15.539-30.604-18.242z"/>
   <path d="m528.78 719.84c0.99482-4.4661 14.302 2.0626 19.271 11.211 3.7442-10.015-10.68-15.078-17.671-18.222z"/>
   <path d="m513.93 283.21l-71.07 71.79c3.07 8.45 6.89 15.56 11.2 21.44 27.31-8.26 51.95-6.46 73.34-4.12 8.4-19.74 7.16-50.21-13.47-89.11z" fill-rule="evenodd" transform="translate(0 352.36)" fill="#fff"/>
   <path d="m501.22 296.05l-58.2 58.79c4.37 8.69 9.19 15.53 14.19 20.69 17.96-4.97 34.75-5.68 50.18-4.91 8.14-16.22 8.64-42.66-6.17-74.57z" fill-rule="evenodd" transform="translate(0 352.36)" fill="url(#lg2)"/>
   <path opacity=".8" d="m488.7 308.7l-45.37 45.83c5.95 9.94 12.49 16.33 18.88 19.71 8.79-2.07 17.29-3.18 25.47-3.63 9.97-10.65 13.31-33.39 1.02-61.91z" fill-rule="evenodd" transform="translate(0 352.36)"/>
   <path d="m512 637.86c21.664 30.933 21.747 59.708 17 88" stroke="#000" stroke-width="7" fill="none"/>
   <path stroke-linejoin="round" d="m448.79 730.5c33.966-11.767 63.953-7.4418 88.911-4.6629" stroke="#f00" stroke-linecap="round" stroke-width="7" fill="none"/>
   <path d="m461.26 693.25c-6.4941-0.16321-11.314 8.1644-11.604 13.926-0.34639 6.8874 4.8808 9.0368 9.7773 5.2462 3.8871-3.0092 6.0364-7.5367 5.9093-12.114-0.10638-3.833-0.72679-6.9742-4.0828-7.0585z" fill="#fff"/>
   <path stroke-linejoin="round" d="m435.71 685.93 4.2857 25 75.714-76.429" stroke="#000" stroke-linecap="round" stroke-width="7" fill="none"/>
   <path d="m515.66 639.18c6.485-5.5335 14.035-18.194 8.612-28.995-2.7964 11.136-5.9344 16.115-11.835 22.853z"/>
   <path d="m382.78 768.22c-2.0609-0.17472-2.3828 11.291 1.6616 13.712 6.7174 4.02 15.639-0.55588 14.19-2.5242-2.07-2.8118-6.6836-2.6544-9.2172-5.2218-3.0109-3.051-1.9602-5.5693-6.634-5.9656z" fill="#f00"/>
   <path d="m443.29 771.51c0.81372 1.9405 11.204 2.2051 13.232-3.2437 2.0949-5.6262-1.0179-12.848-2.7038-13.173-2.5165-0.48543-2.4062 5.1068-4.5138 8.8372-2.2161 3.9225-6.7754 5.7659-6.0148 7.5797z" fill="#f00"/>
   <path d="m391.26 753.72c21.532-4.9204 35.521-8.3171 49.564-9.1658 5.5607-0.33609-6.3968-7.6395-23.749-4.6834-25.683 5.2144-28.448 14.451-25.814 13.849z" fill="#f00"/>
   <path stroke-linejoin="round" d="m431.43 445.58c-15.993-6.4574-56.157-13.802-62.857 8.9286-9.7619-5.1074-19.524-7.8491-29.286-5.3571" stroke="#7f0808" stroke-linecap="round" stroke-width="5" fill="none"/>
   <path stroke-linejoin="round" d="m336.79 443.43c-69.42-17.79-88.85 25.93-198.93-18.92" stroke="#7f0808" stroke-linecap="round" stroke-width="5" fill="none"/>
   <path stroke-linejoin="round" d="m140.36 416.29c113.56 39.357 112.57 2.1756 186.07 11.071" stroke="#7f0808" stroke-linecap="round" stroke-width="5" fill="none"/>
   <path stroke-linejoin="round" d="m240.53 204.61s8.8029-0.41943 8.562-0.21078c55.229-0.18564 91.722 13.164 123.66 34.471-0.0474-6.4293-0.24394-12.672-0.57031-18.748 8.725-25.037 26.697-41.327 46.266-52.428l8.2194-4.3822" transform="translate(0 352.36)" stroke="#7f0808" stroke-width="10" fill="none"/>
   <path d="m288.12 702.09c-9.7097-0.26746-16.916 13.38-17.35 22.823-0.51791 11.287 7.2976 14.81 14.619 8.5977 5.8118-4.9316 9.0254-12.352 8.8354-19.853-0.15905-6.2818-1.0867-11.43-6.1045-11.568z" fill="#fff"/>
   <path d="m303.67 723.85c0.31272 3.3384 3.5358 5.0556 5.7228 4.8607 4.7119-0.41981 9.0754-7.2303 8.4411-10.662-0.63086-3.4132-3.4277-4.9053-6.2951-4.5471-3.7074 0.46314-8.2499 6.2806-7.8688 10.349z" fill="#fff"/>
   <path d="m473.02 706.46c0.20408 2.4112 2.3074 3.6515 3.7347 3.5108 3.075-0.30322 5.9226-5.2223 5.5087-7.7011-0.4117-2.4653-2.2369-3.543-4.1082-3.2843-2.4195 0.33452-5.3839 4.5363-5.1352 7.4746z" fill="#fff"/>
  </g>
 </g>
</svg>
