<?xml version="1.0" encoding="UTF-8" standalone="no"?>
<svg id="yellow" xmlns:rdf="http://www.w3.org/1999/02/22-rdf-syntax-ns#" xmlns="http://www.w3.org/2000/svg" height="700" width="700" version="1.1" xmlns:cc="http://creativecommons.org/ns#" xmlns:xlink="http://www.w3.org/1999/xlink" viewBox="0 0 700.00001 700.00001" xmlns:dc="http://purl.org/dc/elements/1.1/">
 <defs>
  <linearGradient id="lg">
   <stop stop-color="#268e59" offset="0"/>
   <stop stop-color="#3ec056" offset="1"/>
  </linearGradient>
  <linearGradient id="lg1" y2="408.13" xlink:href="#lg" gradientUnits="userSpaceOnUse" x2="243.38" y1="357.13" x1="221.36"/>
  <linearGradient id="lg2" y2="410.67" xlink:href="#lg" gradientUnits="userSpaceOnUse" x2="475.56" y1="359.05" x1="492.88"/>
 </defs>
 <g>
  <g transform="translate(0 -352.36)">
   <path stroke-linejoin="round" d="m623.67 761.74c21.621 16.859 26.082 17.235 33.234-5.6568 37.209-119.09-67.327-237.38-101.12-262.34-36.613-27.037-57.374-10.101-66.468 11.314 25.324 82.253 36.07 180.04 134.35 256.68z" fill-rule="evenodd" stroke="#ffb527" stroke-linecap="round" stroke-width="10" fill="#fff661"/>
   <path stroke-linejoin="round" d="m239.67 574.77c-39.75 63.22-74.88 138.34-160.62 193.32-17.459 11.2-24.711 1.14-29.33-14.46-9.5-32.07 6.056-142.91 54.22-233.72z" fill-rule="evenodd" stroke="#ffb527" stroke-linecap="round" stroke-width="10" fill="#fff661"/>
   <path d="m212.13 912.36c72.912 90.782 220.48 90.55 295.57-9.8995 84.091-112.49 62.117-243.72-2.8284-325.27-61.145-76.774-231.07-50.074-304.06 11.314-106.65 89.696-38.26 262.13 11.314 323.85z" fill-rule="evenodd" stroke="#ffb527" stroke-width="10" fill="#fff661"/>
   <path d="m165.79 764.5c-20.031 5.0626-35.606 5.9891-38.805-8.9706 10.309 9.1882 36.81 3.9987 34.616-2.8571z"/>
   <path d="m124 644.36c-26.519 4.2596-54.164 14.154-82 25 11.918-115.86 102.05-266.22 232-255 86.401 7.4615 155.08 40.259 231 67-4.8726 105.44 62.729 168.81 128 182-112.27 30.779-228.98-12.478-292-24.879-36.323-7.1476-121.56-15.082-191.57 2.6923-6.2362-39.295-2.1156-73.817 3.4375-112.35-27.24 38.84-32.02 91.96-28.87 115.54z" fill-rule="evenodd" fill="#ebffad"/>
   <path fill="#ffb527" d="m320.15 825.75c-1.8582-0.90817-6.3047 9.6654-3.4093 13.385 4.809 6.1771 14.781 5.1371 14.142 2.7779-0.9131-3.37-5.2714-4.8918-6.7051-8.2016-1.7038-3.9334 0.18648-5.9012-4.0278-7.9609z"/>
   <path fill="#ffb527" d="m373.37 841.84c0.70411 1.9829 11.063 2.8271 13.393-2.5 2.4057-5.5005-0.29908-12.885-1.9643-13.304-2.4854-0.62519-2.6875 4.9646-5 8.5714-2.4316 3.7927-7.0867 5.3787-6.4286 7.2321z"/>
   <path fill="#ffb527" d="m329.21 795.95c22.086-0.25893 36.477-0.62275 50.381 1.5152 5.5062 0.84663-4.6379-8.8188-22.223-9.5964-26.205-0.33095-30.859 8.1129-28.158 8.0812z"/>
   <path fill="#ffb527" d="m309.02 924.08c5.5031-47.711 41.329-3.451 62.258 11.418 9.153-4.0752-22.366-51.383-43.468-52.316-31.446-0.39714-25.525 33.935-18.79 40.897z"/>
   <path d="m162.04 750.95c-21.953 2.5484-45.536-3.0246-43.751-16.909 11.659 11.912 42.238 12.27 42.378 4.5178z"/>
   <path d="m170.69 783.42c-2.2036-2.8861-10.383 1.5008-16.201 10.481-3.0459-9.8293 9.7022-14.935 14.371-17.759z"/>
   <path d="m174.03 791.04c-1.8015-3.4231-12.882 2.4819-16.529 13.192-6.2086-8.7042 11.183-17.968 14.053-19.437z"/>
   <path d="m177.16 797.8c-1.4838-2.9525-7.303-0.79958-11.786 8.5963-2.0132-8.3049 6.8766-12.991 9.9426-14.872z"/>
   <path d="m281.7 307.71c-28.67 39.51-69.67 63.05-122.47 72.4 0.41 22.61 7.55 49.05 22.11 74.02 38.42-12.12 78.29-10.42 105.27-2.38 21.2-46.44 15.07-105.28-4.91-144.04z" fill-rule="evenodd" transform="translate(0 352.36)" fill="#fff"/>
   <path d="m275.92 315.25c-24.02 29.69-55.78 49.41-95.01 60.04-0.65 25.9 5.83 52.15 19.05 74.02 31.31-6.39 62.04-4.43 84.51 1.83 1.89-2.15 3.67-4.48 5.32-6.98 13.82-36.01 12.48-78.08 1.76-112.26-4.2-6.48-9.39-12.15-15.63-16.65z" fill-rule="evenodd" transform="translate(0 352.36)" fill="url(#lg1)"/>
   <path opacity=".8" d="m269.83 322.38c-18.15 20.13-40.27 35.16-66.27 45.42-3.25 27.66 2.08 59.68 16.83 78.48 22.13-2.11 43.09-0.35 59.99 3.78 0.3-0.02 0.58-0.04 0.89-0.07 21.89-37.76 23.91-98.73-11.44-127.61z" fill-rule="evenodd" transform="translate(0 352.36)"/>
   <path d="m263.61 328.91c-9.92 9.91-20.92 18.44-32.98 25.64 2.64 12.64 18.97 28.01 25.7 31.14 17.22 8.02 30.54-3.25 28.53-18.68-1.59-12.24-8.2-31.84-18.99-37.22-0.72-0.36-1.48-0.65-2.26-0.88z" fill-rule="evenodd" transform="translate(0 352.36)" fill="#fff"/>
   <path d="m223.25 741.61c-0.5429-6.6872 4.8184-8.7782 9-9 5.5425-0.29395 13.038 7.7038 13.25 13.25 0.1778 4.6521-3.0946 8.0211-9.5 7.5-5.4046-0.4397-12.311-6.3454-12.75-11.75z" fill-rule="evenodd" fill="#fff"/>
   <path stroke-linejoin="round" d="m157.68 732.75c60.529-10.357 105.7-39.173 134.7-89.095" stroke="#000" stroke-linecap="round" stroke-width="7" fill="none"/>
   <path d="m286.61 451.75c21.196-46.44 15.069-105.27-4.9141-144.03m-122.46 72.395c0.4073 22.616 7.5481 49.051 22.104 74.02" transform="translate(0 352.36)" stroke="#000" stroke-width="7" fill="none"/>
   <path d="m265.7 429.72c-8.27-0.2-16.2 4.44-25.2 4.53-8.37 0.09-20.43-3.99-28.75-3-7.01 0.84-12.79 5.09-19.75 5.75-5.46 0.52-10 14.48-10.83 17.18 40.03-12.66 81.63-10.32 108.64-1.43 2.37-1.68 9.1-6.72 7.94-9.5-2.68-6.43-13.1-5.98-19.25-7.5-3.89-0.96-3.21-3.69-7-5-1.96-0.68-3.89-0.98-5.8-1.03z" fill-rule="evenodd" fill-opacity=".48223" transform="translate(0 352.36)" fill="#1b90ed"/>
   <path stroke-linejoin="round" d="m292.98 795.95c-6.6168-4.6022-17.386-1.1842-22.328-8.832-2.0197-1.002-4.3488-1.0534-6.5547-1.0098-11.679 2.0724-24.064 7.0557-36.012 2.9726-9.4736-2.2207-19.758-2.3106-28.371 2.6856-4.5918 0.816-9.963 1.615-11.199 6.9922" stroke-opacity=".36548" stroke="#44bef0" stroke-linecap="round" stroke-width="3" fill="none"/>
   <path stroke-linejoin="round" d="m173.59 809.12c46.377-17.022 96.31-12.896 124.1-1.0607" stroke="#ffb527" stroke-linecap="round" stroke-width="7" fill="none"/>
   <path d="m262.75 819.61c10.964-2.5028 15.219-8.983 25.5-6.5-10.141 3.9406-13.72 6.8162-25.5 6.5z" fill-rule="evenodd" fill="#ffb527"/>
   <path d="m452.75 823.86c-10.964-2.5028-15.219-8.983-25.5-6.5 10.141 3.9406 13.72 6.8162 25.5 6.5z" fill-rule="evenodd" fill="#ffb527"/>
   <path d="m551.6 764.67c20.031 5.0626 35.606 5.9891 38.805-8.9706-10.309 9.1882-36.81 3.9987-34.616-2.8571z"/>
   <path d="m555.71 751.83c21.953 2.5484 45.536-3.0246 43.751-16.909-11.659 11.912-42.238 12.27-42.378 4.5178z"/>
   <path d="m542.68 797.53c2.2036-2.8861 10.383 1.5008 16.201 10.481 3.0459-9.8293-9.7022-14.935-14.371-17.759z"/>
   <path d="m538.9 805.01c1.8015-3.4231 12.882 2.4819 16.529 13.192 6.2086-8.7042-11.183-17.968-14.053-19.437z"/>
   <path d="m535.25 811.58c1.4838-2.9525 7.303-0.79958 11.786 8.5963 2.0132-8.3049-6.8766-12.991-9.9426-14.872z"/>
   <path d="m437 313c-23.83 51.57-20.46 89.14-7 140.63 35.97-7.93 72.59-3.55 103.25 9.17 17.62-27.45 24.33-51.34 24.24-82.37-49.86-7.74-84.14-31.89-119.08-66.65l-1.41-0.78z" fill-rule="evenodd" transform="translate(0 352.36)" fill="#fff"/>
   <path d="m449.1 324.6c-15.04 16.01-24.17 31.41-28.85 46.49-2.45 24.59 1.21 48.43 8.11 76.08 0.9 2.07 1.83 4.14 2.81 6.22 31.26-6.66 62.95-4.07 90.75 5.19 13.99-22.22 19.61-55.31 17.35-81.87-35-8.95-62.23-26.9-88.76-51.33l-1.41-0.78z" fill-rule="evenodd" transform="translate(0 352.36)" fill="url(#lg2)"/>
   <path opacity=".8" d="m457.01 331.21c-40.19 31.78-40.26 81.01-22.57 121.51 21.98-4.22 44.09-3.93 64.84-0.01 11.66-22.5 18.85-58.33 15.65-84.12-21.33-8.9-39.92-21.62-57.92-37.38z" fill-rule="evenodd" transform="translate(0 352.36)"/>
   <path d="m533.25 462.8c17.616-27.455 24.331-51.34 24.24-82.375m-120.49-67.42c-23.828 51.572-20.463 89.136-7.0039 140.63" transform="translate(0 352.36)" stroke="#000" stroke-width="7" fill="none"/>
   <path d="m443.99 437.16c-0.49 0.01-0.99 0.04-1.49 0.09-5.12 0.49-8.96 3.36-13.75 5.25-3.84 1.51-10.44 0.09-11.75 4-0.97 2.9 3.26 6.66 6.1 8.81 36.93-9.81 75-6.29 106.99 6.22 0.26-2.08-0.15-5.76-4.09-10.78-4.24-5.4-12.69-1.22-19.25-3.25-5.27-1.64-9.96-7.16-15.25-8.75-9.97-2.99-17.67 3.19-26.25 2.5-7.54-0.6-13.88-4.27-21.26-4.09z" fill-rule="evenodd" fill-opacity=".48235" transform="translate(0 352.36)" fill="#1b90ed"/>
   <path stroke-linejoin="round" d="m525.94 811.38c-0.73821-5.7173-6.6655-8.77-11.857-6.8203-8.3433 0.90809-15.511-4.108-21.754-8.8945-11.062-4.3598-22.27 5.1824-33.528 0.89504-5.0366-1.1945-9.9899-3.2619-15.268-2.9927-7.6276 1.2365-14.97 7.0246-22.359 6.7949" stroke-opacity=".36471" stroke="#44bef0" stroke-linecap="round" stroke-width="3" fill="none"/>
   <path d="m453.89 743.46c-0.5429-6.6872 4.8184-8.7782 9-9 5.5425-0.29395 13.038 7.7038 13.25 13.25 0.1778 4.6521-3.0946 8.0211-9.5 7.5-5.4046-0.4397-12.311-6.3454-12.75-11.75z" fill-rule="evenodd" fill="#fff"/>
   <path d="m465.43 338.32c-0.84 7.59 0.56 17.27 2.14 25.1 2.55 12.66 18.96 28.01 25.69 31.14 17.23 8.02 30.55-3.25 28.54-18.68-0.2-1.53-0.48-3.19-0.84-4.92-20.51-7.67-38.42-18.76-55.53-32.64z" fill-rule="evenodd" transform="translate(0 352.36)" fill="#fff"/>
   <path stroke-linejoin="round" d="m561.84 733.43c-55.029-7.3572-91.195-34.173-129.2-73.095" stroke="#000" stroke-linecap="round" stroke-width="7" fill="none"/>
   <path stroke-linejoin="round" d="m416.45 809.57c41.877-13.022 85.81-8.3958 121.1 7.4393" stroke="#ffb527" stroke-linecap="round" stroke-width="7" fill="none"/>
   <path d="m159.46 735.84c-21.917 2.9687-36.297-7.9016-34.658-18.796 10.905 9.5463 23.617 12.377 33.618 12.26z"/>
   <path d="m560.25 736.55c21.917 2.9687 36.297-7.9016 34.658-18.796-10.905 9.5463-23.617 12.377-33.618 12.26z"/>
   <path d="m432.09 101.98s-0.01 0-0.01 0.01c1.44 0.53 2.89 1.06 4.34 1.6-1.44-0.54-2.89-1.08-4.33-1.61zm7.03 2.62c-59.57 39.66-86.54 100.16-89 183.44 23.98 5.31 54.32 13.86 88.46 21.03-30.93-65.5-25.69-149.82 27.31-194.43-8.94-3.37-17.86-6.72-26.77-10.04zm-111.11 179.29c4.78 0.74 9.2 1.49 12.99 2.23-3.8-0.75-8.19-1.5-12.99-2.23z" fill-rule="evenodd" transform="translate(0 352.36)" fill="#dcd75e"/>
   <path stroke-linejoin="round" d="m229.98 631.03c14.48-83.26 42.4-148.57 82.48-209.74" stroke="#dffe52" stroke-linecap="round" stroke-width="5" fill="none"/>
   <path stroke-linejoin="round" d="m209.8 630.83c2.4765-84.761 27.403-150.57 81.474-214.24" stroke="#dffe52" stroke-linecap="round" stroke-width="5" fill="none"/>
   <path d="m405.41 92.355c-60.27 50.975-93.12 114.36-112.86 187.48 19.82 1.58 36.7 3.97 48.45 6.28 2.91 0.57 5.98 1.23 9.12 1.93 2.46-83.3 29.43-143.79 89-183.46-11.2-4.19-22.41-8.304-33.71-12.235z" fill-rule="evenodd" transform="translate(0 352.36)" fill="#cbc74f"/>
   <path stroke-linejoin="round" d="m513.8 671.83c-24.02-54.27-37.1-125.08-24.53-194.74" stroke="#dffe52" stroke-linecap="round" stroke-width="5" fill="none"/>
   <path stroke-linejoin="round" d="m124 644.36c-26.519 4.2596-54.164 14.154-82 25 11.918-115.86 102.05-266.22 232-255 86.401 7.4615 155.08 40.259 231 67-4.8726 105.44 62.729 168.81 128 182-112.27 30.779-228.98-12.478-292-24.879-36.323-7.1476-121.56-15.082-191.57 2.6923-6.2362-39.295-2.1156-73.817 3.4375-112.35-27.24 38.84-32.02 91.96-28.87 115.54z" stroke="#dffe52" stroke-linecap="round" stroke-width="10" fill="none"/>
   <path stroke-linejoin="round" d="m377.5 118.88c-3.31-20.079-9.9-55.154-19.5-82.88-1.71-4.934-5.68-7.455-9.77-7.498-4.64-0.049-9.42 3.085-11.23 9.498-16.23 57.536-19.2 129.42-20.51 182.65" fill-rule="evenodd" transform="translate(0 352.36)" stroke="#ffb527" stroke-linecap="round" stroke-width="10" fill="#fff661"/>
   <path stroke-linejoin="round" d="m321 476.86c22.964 5.3355 40.355 2.6313 55.5-11.5" stroke="#ffb527" stroke-linecap="round" stroke-width="7" fill="none"/>
   <path stroke-linejoin="round" d="m326 436.86c19.23 4.6084 34.259-0.70044 42-11.5" stroke="#ffb527" stroke-linecap="round" stroke-width="7" fill="none"/>
   <path d="m390.76 105.52c-43.97 41.84-71.65 91.27-90.03 146.97l51.41 6c6.3-57.02 26.31-101.92 63.24-135.45l-24.62-17.52z" fill-rule="evenodd" transform="translate(0 352.36)" fill="#cbc74f"/>
   <g>
    <animateTransform id="traene_1_anim" begin="13.5s;traene_1_anim.end+10s" from="0 0" attributeName="transform" to="0 270" attributeType="XML" dur="1s" type="translate" fill="freeze"/>
    <animate id="traene_1_hide" begin="traene_1_anim.end" from="1" attributeName="opacity" to="0" attributeType="XML" dur="0.1s" fill="freeze"/>
    <animateTransform id="traene_1_restart" begin="traene_1_hide.end" from="0 0" attributeName="transform" to="0 -270" attributeType="XML" additive="sum" dur="0.1s" type="translate" fill="freeze"/>
    <animate id="traene_1_show" begin="traene_1_restart.end" from="0" attributeName="opacity" to="1" attributeType="XML" dur="0.2s" fill="freeze"/>
    <path stroke-linejoin="round" d="m420.3 799.98c1.4826 31.679-17.378 40.642-10.5 50.25 6.316 8.8233 17.08 7.9001 22.875 0 7.463-10.174-10.425-18.898-12.375-50.25z" stroke-opacity=".36471" fill-rule="evenodd" fill-opacity=".48235" stroke="#44bef0" stroke-linecap="round" stroke-width="7.5" fill="#1b90ed"/>
    <ellipse opacity=".753" fill-opacity=".74112" rx="3.8891" ry="6.5407" cy="842.53" cx="424.26" fill="#fff"/>
   </g>
   <g opacity="0">
    <animate id="traene_2_show" begin="traene_1_anim.end-0.5s" from="0" attributeName="opacity" to="1" attributeType="XML" dur="0.2s" type="translate" fill="freeze"/>
    <animateTransform id="traene_2_anim" begin="traene_2_show.end" from="0 0" attributeName="transform" to="0 270" attributeType="XML" dur="1s" type="translate" fill="freeze"/>
    <animate id="traene_2_hide" begin="traene_2_anim.end" from="1" attributeName="opacity" to="0" attributeType="XML" dur="0.1s" type="translate" fill="freeze"/>
    <animateTransform id="traene_2_restart" begin="traene_2_hide.end" from="0 270" attributeName="transform" to="0 0" attributeType="XML" additive="sum" dur="0.1s" type="translate" fill="freeze"/>
    <path stroke-linejoin="round" d="m420.3 799.98c1.4826 31.679-17.378 40.642-10.5 50.25 6.316 8.8233 17.08 7.9001 22.875 0 7.463-10.174-10.425-18.898-12.375-50.25z" stroke-opacity=".36471" fill-rule="evenodd" fill-opacity=".48235" stroke="#44bef0" stroke-linecap="round" stroke-width="7.5" fill="#1b90ed"/>
    <ellipse opacity=".753" fill-opacity=".74112" rx="3.8891" ry="6.5407" cy="842.53" cx="424.26" fill="#fff"/>
   </g>
  </g>
 </g>
</svg>
